<?xml version="1.0" encoding="utf-8"?>
<!-- Generator: Adobe Illustrator 19.2.1, SVG Export Plug-In . SVG Version: 6.00 Build 0)  -->
<svg version="1.1" id="Camada_1" xmlns="http://www.w3.org/2000/svg" xmlns:xlink="http://www.w3.org/1999/xlink" x="0px" y="0px"
	 viewBox="0 0 606 606" style="enable-background:new 0 0 606 606;" xml:space="preserve">
<style type="text/css">
	.st0{fill:none;}
	.st1{opacity:0.7;}
	.st2{fill:#FFFFFF;}
	.st3{fill:#343839;}
	.st4{fill:#EA1D25;}
	.st5{fill:#EE4355;}
	.st6{enable-background:new    ;}
</style>
<title>ThankYou</title>
<g>
	<g id="Objects">
		<rect y="0" class="st0" width="606" height="606"/>
		<g class="st1">
			
				<image style="overflow:visible;enable-background:new    ;" width="457" height="449" xlink:href="20925F39.png"  transform="matrix(1 0 0 1 66.77 129.09)">
			</image>
		</g>
		
			<image style="overflow:visible;opacity:0.35;enable-background:new    ;" width="451" height="480" xlink:href="20925F3B.png"  transform="matrix(0.9978 0 0 0.9979 78.8 55.12)">
		</image>
		<path class="st2" d="M438.5,64.2l-12.3,2.3l-0.4,5.2l6.3,9.1l-0.8,1.8c4.3,2,6.1,7.1,4.1,11.4c-2,4.3-7.1,6.1-11.4,4.1
			c-4.3-2-6.1-7.1-4.1-11.4c0.2-0.4,0.4-0.9,0.7-1.3L418,68.1l-24.8,4.7l3.2,16.6c4.2,2.1,6,7.2,3.9,11.5c-2.1,4.2-7.2,6-11.5,3.9
			c-4.2-2.1-6-7.2-3.9-11.5c0.1-0.2,0.2-0.3,0.2-0.5l-1.1-11.3l-5.1-1l-1-5l-21.8,4.1l0.4,11.6l2.2,3.8c4.7,0.7,8,5,7.3,9.7
			c-0.7,4.7-5,8-9.7,7.3c-4.7-0.7-8-5-7.3-9.7c0.1-0.7,0.3-1.4,0.5-2l-3.6-18.8l-24.2,4.6l0.7,0.3l2.1,10.9l-2.6-1l1,5.3
			c4.7,0.2,8.4,4.3,8.2,9s-4.3,8.4-9,8.2c-4.7-0.2-8.4-4.3-8.2-9c0,0,0,0,0-0.1l1.1-22.3l-28,5.3l2.1,11.3l-0.1,4.4
			c4.6,0.9,7.7,5.4,6.8,10.1c-0.9,4.6-5.4,7.7-10.1,6.8s-7.7-5.4-6.8-10.1c0.4-1.8,1.3-3.4,2.6-4.6l-1.6-4.7l-0.6-11.6l-24.2,4.6
			l0.9,17.1c4.2,2.1,5.9,7.3,3.8,11.5s-7.3,5.9-11.5,3.8c-4.2-2.1-5.9-7.3-3.8-11.5c0.3-0.6,0.6-1.1,1-1.6l-4.5-16.6l-19.4,3.7
			l-0.9,11.4l-4.1,0.4l1.9,4.7c4.7,0.8,7.8,5.2,7,9.9s-5.2,7.8-9.9,7c-4.7-0.8-7.8-5.2-7-9.9c0.2-1.1,0.6-2.2,1.2-3.1l0,0l0.7-18.4
			l-28.8,5.5l3,16c4.5,1.5,7,6.3,5.5,10.8c-1.5,4.5-6.3,7-10.8,5.5c-4.5-1.5-7-6.3-5.5-10.8c0.3-1.1,0.9-2.1,1.6-2.9l-2.9-8.9
			l1.4-8.2l-24.2,4.5l-0.1,16.6c4.5,1.5,6.9,6.3,5.4,10.8c-1.5,4.5-6.3,6.9-10.8,5.4c-4.5-1.5-6.9-6.3-5.4-10.8
			c0.7-2.1,2.2-3.9,4.3-4.9l-2.9-15.3l-25.2,4.8l-1.7,13.7l1.9,3.2c4.4,1.8,6.5,6.8,4.7,11.2s-6.8,6.5-11.2,4.7s-6.5-6.8-4.7-11.2
			c0.5-1.3,1.3-2.4,2.4-3.3l0.7-4.4l-3.4-11.7l-11.5,2.2c-3.2,0.6-5.3,3.7-4.6,6.8l72.8,382.2c0.6,3.2,3.7,5.3,6.8,4.7l346-65.8
			c3.2-0.6,5.2-3.7,4.7-6.8L445.3,68.9C444.7,65.7,441.7,63.6,438.5,64.2z"/>
		
			<image style="overflow:visible;opacity:0.35;enable-background:new    ;" width="48" height="66" xlink:href="20925F3E.png"  transform="matrix(0.9792 0 0 0.9848 251.8 85.12)">
		</image>
		<path class="st3" d="M272.8,130.9c0,0-0.8,5.8-0.1,8c0,0,2.8,4.2,3.1-1.7C276.2,128.1,272.4,128.8,272.8,130.9z"/>
		<ellipse transform="matrix(0.236 -0.9718 0.9718 0.236 111.6663 347.9641)" class="st4" cx="277.1" cy="103" rx="8.4" ry="12"/>
		<path class="st4" d="M286.2,123.2c-0.9-1.7-3.4-2.8-3.4-6.4c0.1-2.3,1.1-4.5,2.8-6h0c1.8-1.4,3-3.4,3.4-5.7
			c0.5-4.2-23.4-5.1-23.4-5.1s-1.4,4.6,2.6,10.4h-0.1c2.1,3.3,0.8,5.3-0.5,6.6c-0.5,0.3-0.9,0.7-1.4,1.1l-0.2,0.1
			c-0.3,0.2-0.5,0.4-0.8,0.7c-0.7,0.6-1.2,1.3-1.7,2.1l-0.1,0.1l0,0l-0.1,0.3c-0.3,0.5-0.6,1.1-0.7,1.7c-1.2,4.8,3.5,10,10.3,11.7
			s13.3-0.9,14.5-5.6C287.8,127,287.4,124.9,286.2,123.2z"/>
		
			<ellipse transform="matrix(0.236 -0.9718 0.9718 0.236 113.1018 347.2404)" class="st5" cx="277.4" cy="101.7" rx="6.7" ry="11.1"/>
		<ellipse transform="matrix(0.236 -0.9718 0.9718 0.236 87.2305 363.5752)" class="st4" cx="274.8" cy="126.3" rx="10" ry="14.3"/>
		<path class="st5" d="M264.6,122.1c0,0-2.9,2.7-2.2,5.6s6.1,6.7,11.4,7.6s13.7-0.8,14-6.2s-2.5-7.2-4.6-8.6s-1.1-6.8,0.6-9
			s1.9-3,1.9-3s-6.5,3.6-16-2c-0.6,0.9-0.8,2-0.7,3c0.4,1.4,8,3.5,12.5,3c0,0-2.7,5.7,0.4,8.2s1.3,6.9-1.9,7.6
			C273,129.7,265.4,126.2,264.6,122.1z"/>
		<g class="st1">
			
				<image style="overflow:visible;enable-background:new    ;" width="99" height="101" xlink:href="20925F3F.png"  transform="matrix(1 0 0 1 216.77 97.09)">
			</image>
		</g>
		<g class="st6">
			<path d="M195.9,197.2c0.8,4,1,7.9,0.6,11.4c-0.4,3.6-1.4,6.8-3,9.6c-1.6,2.8-3.9,5.2-6.8,7.1c-2.9,1.9-6.4,3.3-10.6,4.1
				c-3.9,0.7-7.4,0.6-10.7-0.3s-6.2-2.4-8.7-4.6s-4.6-4.8-6.3-7.9c-1.7-3.1-2.9-6.5-3.6-10.1c-0.6-3.4-0.6-6.8,0.1-10.2
				c0.7-3.5,2-6.7,3.9-9.6c0.4-0.6,0.8-1.3,1.4-2c0.5-0.8,1.1-1.5,1.7-2.2c0.6-0.7,1.3-1.3,2-1.8c0.7-0.5,1.4-0.8,2.1-1
				c0.9-0.2,1.8,0.1,2.5,0.7c-1.4,1.9-2.7,3.8-3.8,5.8c-1.1,2-2.1,4-2.8,6c-0.7,2.1-1.2,4.2-1.4,6.4c-0.2,2.2-0.1,4.5,0.4,6.8
				c0.5,2.8,1.4,5.5,2.7,8.1c1.3,2.6,2.8,4.8,4.8,6.7c1.9,1.9,4.2,3.3,6.7,4.2c2.6,0.9,5.4,1,8.6,0.4c3.3-0.6,6-1.8,8.1-3.6
				c2.1-1.7,3.8-3.8,4.9-6.3c1.1-2.4,1.8-5.1,2-8c0.2-2.9,0-5.8-0.5-8.7c-0.4-2.1-1.1-4.2-2.2-6.5c-1-2.2-2.3-4.2-3.9-5.9
				c-1.5-1.7-3.3-3-5.4-4c-2-0.9-4.3-1.2-6.7-0.7c-3.1,0.6-5.3,1.9-6.6,3.9c-1.3,2-1.6,4.5-1,7.5c0.1,0.4,0.2,0.9,0.3,1.3
				c0.1,0.5,0.3,0.9,0.4,1.3c0.1,0.4,0.3,0.8,0.4,1.1c0.1,0.3,0.2,0.5,0.2,0.6c0.1,0.7-0.1,1.3-0.7,1.9c-0.6,0.6-1.3,1-2.1,1.1
				c-0.7,0.1-1.4,0-2-0.4c-0.6-0.4-1.1-1.3-1.3-2.5c-0.5-2.5-0.6-4.9-0.5-7.1s0.7-4.3,1.6-6.1c0.9-1.8,2.2-3.3,3.9-4.6
				c1.7-1.2,3.8-2.1,6.4-2.6c3.2-0.6,6.2-0.4,9,0.5c2.8,1,5.3,2.4,7.4,4.4c2.2,2,4,4.3,5.4,7C194.3,191.5,195.3,194.3,195.9,197.2z"
				/>
			<path d="M231.3,192.6c0.1,0.5-0.2,1.2-0.9,2c-0.7,0.8-1.7,1.5-2.8,2.4c0.6,0.8,1.1,1.6,1.6,2.5c0.4,0.9,0.8,1.9,1,2.9
				c0.1,0.3,0.1,0.9,0.2,1.8c0.1,0.9,0.1,1.9,0,3c-0.1,1.1-0.3,2.3-0.7,3.6c-0.4,1.3-1,2.5-1.9,3.7c-0.9,1.2-2.1,2.2-3.6,3.2
				c-1.5,1-3.5,1.7-5.8,2.1c-2,0.4-3.7,0.4-5.3,0c-1.5-0.4-2.9-1.1-4-2.2c-1.1-1.1-2.1-2.5-2.8-4.1c-0.7-1.7-1.3-3.6-1.7-5.8
				l-6.2-32.7c-0.2-0.9,0-1.7,0.5-2.2c0.5-0.6,1.1-0.9,1.8-1.1c0.7-0.1,1.4,0,2,0.3c0.6,0.3,1,1,1.2,1.8l6.2,32.7
				c0.6,3.4,1.6,5.8,2.8,7.3c1.2,1.5,3,2,5.3,1.6c2.1-0.4,3.6-1.1,4.7-2.1c1-1,1.7-2.1,2.1-3.2c0.3-1.2,0.5-2.3,0.4-3.4
				c-0.1-1.1-0.2-2-0.3-2.7c-0.2-0.8-0.4-1.6-0.6-2.3c-0.3-0.7-0.6-1.4-0.9-2c-1,0.5-2,0.9-3,1.3s-2,0.6-2.9,0.8
				c-1.8,0.3-3.4,0.2-4.8-0.4c-1.4-0.6-2.2-1.8-2.5-3.6c-0.3-1.5,0-2.8,0.9-3.8c0.9-1,2-1.7,3.4-2c1.6-0.3,3.4-0.2,5.2,0.2
				c1.9,0.4,3.6,1.2,5.2,2.4c1.2-0.9,2.3-1.7,3.1-2.4c0.8-0.7,1.5-1.1,1.9-1.2c0.4-0.1,0.8,0.1,1.1,0.4
				C231,191.7,231.2,192.1,231.3,192.6z M220.7,196.7c-0.8-0.5-1.7-0.9-2.6-1.1c-1-0.2-2-0.2-3.1,0c-0.3,0.1-0.5,0.2-0.7,0.5
				c-0.1,0.3-0.2,0.6-0.1,0.9c0.1,0.3,0.2,0.6,0.4,0.8s0.5,0.3,0.8,0.3c0.3,0,0.6,0,0.9,0c0.3,0,0.6-0.1,0.8-0.1
				C218.3,197.7,219.5,197.3,220.7,196.7z"/>
			<path d="M265.6,207.7c0.1,0.6,0.1,1.2-0.1,1.6c-0.2,0.5-0.5,0.9-0.9,1.2c-0.4,0.3-0.9,0.6-1.5,0.9c-0.6,0.2-1.2,0.4-1.7,0.5
				c-1.8,0.3-3.3,0.3-4.5-0.1c-1.2-0.4-2.1-1.1-2.9-2c-0.7-0.9-1.3-1.9-1.7-3.1c-0.4-1.2-0.7-2.3-0.9-3.4c-0.1-0.6-0.2-1.3-0.2-2.1
				c0-0.8-0.1-1.6-0.1-2.4s-0.1-1.6-0.1-2.4c0-0.8-0.1-1.4-0.2-2c-0.1-0.8-0.4-1.2-0.7-1.3c-0.2,0-0.4,0-0.5,0
				c-0.1,0-0.3,0.1-0.5,0.1c-0.6,0.1-1.3,0.3-2.3,0.6c-1,0.3-1.8,0.5-2.5,0.7c-0.1,0-0.3,0-0.5,0.1c-0.3,0-0.6,0.1-1,0.1
				c0.1,0.4,0.2,0.7,0.3,1.1c0.1,0.3,0.2,0.5,0.2,0.6c0.2,1,0.4,2.2,0.5,3.4c0.1,1.3,0.1,2.5,0.1,3.9c-0.1,1.3-0.2,2.6-0.5,3.9
				c-0.3,1.3-0.7,2.5-1.2,3.6c-0.5,1.1-1.2,2-2,2.7c-0.8,0.7-1.8,1.2-2.9,1.4c-0.8,0.2-1.4-0.3-1.6-1.3c-0.1-0.7-0.1-1.3,0.1-1.8
				c0.2-0.5,0.5-1.1,0.8-1.6c0.3-0.5,0.7-1.1,1.1-1.8c0.4-0.7,0.7-1.4,1-2.4c0.3-0.9,0.4-2,0.5-3.3c0.1-1.3-0.1-2.8-0.4-4.7
				c-0.1-0.5-0.3-1.1-0.6-1.9c-0.3-0.8-0.5-1.5-0.7-2.1c-1-0.2-2-0.5-2.7-1s-1.3-1.2-1.4-2.1c-0.2-1.1,0.1-2,0.8-2.8
				c0.8-0.8,1.7-1.3,2.8-1.5c0.6-0.1,1.2,0,1.8,0.3c0.6,0.3,1.2,0.6,1.8,1c0.6,0.3,1.2,0.7,1.9,0.9c0.6,0.3,1.3,0.3,2.1,0.2
				c0.7-0.1,1.4-0.3,2-0.5c0.6-0.2,1.1-0.4,1.6-0.6c0.5-0.2,1-0.4,1.5-0.5c0.5-0.2,1.1-0.3,1.6-0.4c1.4-0.3,2.5-0.2,3.4,0.3
				c0.8,0.5,1.4,1.4,1.7,2.8c0.2,1,0.3,1.8,0.3,2.5c0,0.7,0,1.5,0.1,2.2c0,0.8,0.1,1.6,0.1,2.6c0.1,1,0.2,2.2,0.5,3.6
				c0.2,0.8,0.3,1.6,0.6,2.4c0.2,0.8,0.5,1.5,0.8,2c0.3,0.6,0.7,1,1.2,1.3c0.5,0.3,1.1,0.4,1.8,0.3c0.8-0.1,1.3-0.4,1.7-0.7
				c0.4-0.3,0.8-0.6,1.1-0.6c0.3-0.1,0.6,0,0.9,0.3C265.2,206.5,265.4,207,265.6,207.7z"/>
		</g>
		<g class="st6">
			<path d="M269.2,173.9c0.2,1.1,0,2.1-0.7,3c-0.7,0.9-1.5,1.5-2.4,1.6c-1.1,0.2-2.1,0-3-0.7c-0.9-0.7-1.5-1.5-1.7-2.6
				c-0.2-1,0.1-1.9,0.7-2.8c0.7-0.9,1.5-1.4,2.5-1.6c0.5-0.1,0.9-0.1,1.4,0.1c0.5,0.1,1,0.3,1.4,0.6c0.4,0.3,0.8,0.7,1.1,1.1
				C268.9,173,269.1,173.5,269.2,173.9z M281.6,204.6c0.1,0.6,0,1.1-0.4,1.6c-0.3,0.5-0.8,0.9-1.4,1.3c-0.6,0.4-1.2,0.7-1.8,0.9
				c-0.7,0.2-1.2,0.4-1.7,0.5c-1.2,0.2-2.3,0.2-3.3-0.1s-1.9-0.8-2.7-1.4c-0.8-0.7-1.5-1.5-2-2.5c-0.5-1-0.9-2-1.1-3.1l-3.1-16.3
				c-0.2-0.8,0-1.5,0.5-2c0.5-0.5,1.1-0.8,1.8-1c0.7-0.1,1.3-0.1,1.9,0.2c0.6,0.3,1,0.8,1.1,1.5l2.9,15.2c0.1,0.7,0.3,1.4,0.6,2.1
				c0.2,0.6,0.5,1.2,0.9,1.6c0.4,0.5,0.8,0.8,1.3,1c0.5,0.2,1.1,0.2,1.8,0.1c0.4-0.1,0.8-0.2,1.1-0.5s0.7-0.4,1-0.4
				c0.5-0.1,0.9-0.1,1.4,0.1C281.2,203.6,281.5,204,281.6,204.6z"/>
			<path d="M315.1,197.5c0.1,0.5,0.1,0.9,0,1.4c-0.1,0.5-0.2,0.8-0.4,0.9c-0.7,0.8-1.5,1.6-2.3,2.3s-1.6,1.4-2.4,2.1l0.8,4.1
				c0.3,1.5,0.6,3.2,0.8,5.1c0.3,1.9,0.3,3.7,0.1,5.3c-0.2,1.7-0.7,3.2-1.6,4.5c-0.9,1.3-2.2,2.1-4.1,2.5c-1,0.2-2,0.1-2.8-0.2
				c-0.8-0.3-1.6-0.8-2.2-1.4c-0.6-0.6-1.1-1.4-1.6-2.2c-0.4-0.9-0.7-1.8-0.9-2.7c-0.1-0.8-0.2-1.7-0.3-2.7c0-1.1,0.2-2.3,0.6-3.6
				c0.4-1.3,1.1-2.8,2.1-4.4c1-1.6,2.4-3.4,4.2-5.3l-0.8-3.6c-1.2,1-2.6,2.1-4.2,3.2c-1.6,1.1-3.5,1.8-5.8,2.3
				c-1.5,0.3-3.1,0.3-4.5,0c-1.5-0.3-2.8-0.9-4.1-1.7c-1.2-0.8-2.3-1.8-3.1-3.1c-0.9-1.2-1.4-2.6-1.7-4.2c-0.4-1.9-0.4-3.7-0.1-5.6
				c0.3-1.9,0.9-3.7,1.9-5.3c1-1.6,2.4-3.1,4.1-4.3c1.7-1.2,3.8-2.1,6.3-2.5c0.6-0.1,1.2-0.2,1.8-0.3s1.3-0.1,1.9,0
				c0.6,0.1,1.1,0.3,1.5,0.6c0.4,0.3,0.7,0.8,0.8,1.4c0.1,0.7,0.1,1.2-0.2,1.7c-0.2,0.5-0.6,0.8-1.2,0.9c-0.3,0.1-0.6,0.1-0.8,0
				c-0.2,0-0.5-0.1-0.7-0.1c-0.2,0-0.5-0.1-0.8-0.1c-0.3,0-0.7,0-1.2,0.1c-1.8,0.3-3.2,0.9-4.4,1.6c-1.2,0.7-2.1,1.6-2.7,2.6
				c-0.6,1-1,2.1-1.2,3.2c-0.2,1.2-0.1,2.4,0.1,3.7c0.2,1.1,0.5,2.1,1,3c0.5,0.9,1,1.7,1.7,2.4c0.7,0.6,1.5,1.1,2.5,1.4
				c1,0.3,2,0.3,3.2,0.1c1.8-0.3,3.2-0.8,4.3-1.5c1.1-0.7,2-1.4,2.5-2.3c0.6-0.8,0.9-1.8,1-2.8c0.1-1,0.1-2-0.1-3
				c-0.1-0.4-0.2-0.8-0.3-1c-0.1-0.3-0.2-0.5-0.3-0.8c-0.1-0.2-0.2-0.5-0.3-0.8c-0.1-0.3-0.2-0.8-0.3-1.3c-0.2-1.2-0.4-2.3-0.4-3.5
				c0-1.1,0-2.1,0.2-3c0.2-0.9,0.5-1.6,1-2.2c0.5-0.6,1.1-1,1.9-1.1c0.6-0.1,1.1,0,1.4,0.2c0.4,0.2,0.7,0.6,1,1
				c0.3,0.4,0.5,0.9,0.7,1.5c0.2,0.5,0.3,1.1,0.4,1.6c0.2,0.9,0.3,1.9,0.3,3c0,1.1,0,2.1-0.1,3c-0.1,1-0.1,1.8-0.2,2.6
				c-0.1,0.8,0,1.3,0,1.7c0.1,0.4,0.1,0.8,0,1.2c0.3,1.1,0.5,2.3,0.7,3.4c0.2,1.1,0.5,2.3,0.7,3.5c0.6-0.5,1.2-1,1.9-1.6
				c0.7-0.5,1.4-1.1,2.1-1.7c0.2-0.2,0.4-0.3,0.7-0.3c0.4-0.1,0.7,0,1,0.3C314.8,196.6,315,197,315.1,197.5z M306.1,207.9
				c-1.1,1.3-2,2.8-2.6,4.5c-0.6,1.7-0.7,3.6-0.3,5.9c0,0.2,0.1,0.5,0.2,0.9c0.1,0.4,0.2,0.7,0.4,1c0.2,0.3,0.4,0.6,0.7,0.8
				c0.3,0.2,0.6,0.3,1.1,0.2c0.5-0.1,0.9-0.5,1.2-1.3c0.3-0.7,0.4-1.6,0.5-2.5c0.1-1,0.1-1.9,0-2.9c-0.1-1-0.2-1.8-0.3-2.3
				L306.1,207.9z"/>
		</g>
		<g class="st6">
			<path d="M347.7,191.4c0.1,0.7,0.1,1.3-0.2,1.8c-0.3,0.5-0.6,0.9-1.1,1.2c-0.5,0.3-1.1,0.6-1.7,0.8c-0.6,0.2-1.2,0.3-1.7,0.4
				c-1.1,0.2-2.3,0.2-3.5-0.1c-1.2-0.3-2.3-0.7-3.2-1.4c-1.3,1.1-2.6,2-3.8,2.8c-1.2,0.8-2.7,1.4-4.5,1.7c-1.5,0.3-3.1,0.3-4.5,0
				c-1.5-0.3-2.8-0.9-4.1-1.7c-1.2-0.8-2.3-1.8-3.1-3.1c-0.9-1.2-1.4-2.6-1.7-4.2c-0.4-1.9-0.4-3.8-0.1-5.7c0.3-2,0.8-3.8,1.7-5.5
				c0.9-1.7,2.1-3.1,3.5-4.3c1.5-1.2,3.2-2,5.3-2.4c0.4-0.1,1-0.2,1.6-0.2c0.6-0.1,1.3-0.1,1.9,0c0.6,0.1,1.2,0.3,1.7,0.6
				c0.5,0.3,0.8,0.8,0.9,1.4c0.1,0.7,0,1.1-0.2,1.5c-0.3,0.3-0.7,0.5-1.2,0.6c-0.3,0.1-0.6,0.1-0.8,0c-0.2,0-0.5-0.1-0.7-0.1
				s-0.5-0.1-0.8-0.1c-0.3,0-0.7,0-1.1,0.1c-1.3,0.3-2.5,0.8-3.3,1.6c-0.9,0.8-1.5,1.8-2,2.9c-0.5,1.1-0.8,2.3-0.9,3.5
				c-0.1,1.2,0,2.4,0.2,3.5c0.2,1.1,0.5,2.1,1,3c0.4,0.9,1,1.7,1.7,2.4c0.7,0.6,1.5,1.1,2.4,1.4c0.9,0.3,2,0.3,3.2,0.1
				c0.6-0.1,1.3-0.3,1.9-0.7c0.7-0.3,1.3-0.7,1.8-1.2c0.5-0.5,0.9-1,1.2-1.7c0.3-0.6,0.3-1.3,0.2-2.1c-0.1-0.7-0.3-1.3-0.4-1.9
				c-0.1-0.6-0.3-1-0.3-1.4c-0.3-1.3-0.4-2.8-0.6-4.4c-0.1-1.6-0.2-3.1,0-4.6c0.1-1.4,0.4-2.7,0.9-3.7c0.5-1.1,1.2-1.7,2.2-1.9
				c0.6-0.1,1.1,0,1.4,0.2c0.4,0.2,0.7,0.6,1,1c0.3,0.4,0.5,0.9,0.7,1.5c0.2,0.5,0.3,1.1,0.4,1.6c0.2,0.9,0.3,1.9,0.3,3.1
				c0,1.1,0,2.2-0.1,3.3c0,1-0.1,2-0.2,2.8c-0.1,0.8-0.1,1.4,0,1.7c0.1,0.7,0.3,1.5,0.5,2.2c0.2,0.7,0.5,1.4,0.8,1.9
				c0.3,0.6,0.8,1,1.3,1.3c0.5,0.3,1.2,0.3,2,0.2c0.5-0.1,1-0.3,1.4-0.5s0.8-0.4,1.3-0.5c0.4-0.1,0.8,0,1.2,0.2
				C347.4,190.6,347.6,191,347.7,191.4z"/>
		</g>
		<g class="st6">
			<path d="M375,151.4c0.3,1.5,0.5,3.3,0.8,5.5c0.2,2.2,0.4,4.6,0.4,7.1c0,2.5,0,5.2-0.3,7.9c-0.2,2.7-0.7,5.3-1.3,7.7
				c0.8,1.3,1.6,2.3,2.4,3.1c0.8,0.8,1.5,1.4,2,1.9c0.6,0.5,1.1,0.9,1.5,1.1s0.6,0.4,0.6,0.6c0.2,1,0.1,1.7-0.3,2.2
				c-0.4,0.5-0.9,0.8-1.4,0.9c-1.4,0.3-2.6,0-3.8-0.7c-1.2-0.7-2.3-1.8-3.4-3.2c-1,1.7-2.1,3.1-3.5,4.2c-1.4,1.1-3.1,1.9-5.1,2.3
				c-1.9,0.4-3.7,0.4-5.5,0c-1.8-0.4-3.4-1-4.9-2c-1.5-1-2.7-2.2-3.8-3.7c-1-1.5-1.7-3.2-2.1-5.1c-0.4-2-0.3-3.9,0.1-5.8
				c0.5-1.9,1.3-3.5,2.4-5c1.1-1.5,2.5-2.8,4.1-3.8c1.6-1,3.4-1.8,5.3-2.1c0.4-0.1,0.9-0.1,1.3-0.1c0.4,0,0.8,0,1.2,0.2
				c0.4,0.1,0.7,0.3,1,0.6s0.5,0.6,0.6,1.1c0.1,0.5,0,1-0.2,1.4c-0.2,0.4-0.6,0.7-1.2,0.8c-0.1,0-0.3,0-0.7,0
				c-0.3,0-0.8,0.1-1.5,0.2c-1.1,0.2-2.2,0.7-3.1,1.3s-1.8,1.5-2.5,2.5c-0.7,1-1.2,2-1.5,3.2c-0.3,1.2-0.4,2.3-0.1,3.5
				c0.2,1.2,0.7,2.4,1.3,3.5c0.6,1.1,1.4,2,2.3,2.7c0.9,0.7,1.9,1.3,3,1.6c1.1,0.3,2.3,0.4,3.5,0.1c1.7-0.3,3.1-1,4.3-2
				c1.1-1,2.1-2.3,2.8-3.9c-0.8-1.5-1.5-3.1-2.1-4.7c-0.6-1.7-1.2-3.3-1.7-5c-0.5-1.7-1-3.3-1.3-4.8c-0.4-1.6-0.7-3-0.9-4.3
				c-0.1-0.8-0.3-1.8-0.6-3.1c-0.2-1.3-0.4-2.7-0.5-4.1c-0.1-1.5-0.2-3-0.2-4.5c0-1.5,0.2-2.9,0.5-4.2c0.3-1.3,0.9-2.4,1.6-3.3
				c0.7-0.9,1.7-1.5,2.9-1.7c1-0.2,2-0.1,2.8,0.3c0.8,0.4,1.5,1.1,2.2,2c0.6,0.9,1.2,2,1.6,3.3C374.3,148.4,374.7,149.8,375,151.4z
				 M370.1,150.5c-0.3-1.6-0.6-2.6-0.9-2.9c-0.3-0.4-0.7-0.5-1.2-0.4c-0.3,0.1-0.6,0.4-0.8,0.9c-0.2,0.5-0.3,1.4-0.3,2.6
				c0,1.2,0.1,2.8,0.4,4.7c0.3,2,0.7,4.4,1.2,7.3c0.8,4.4,1.9,8.1,3.1,11.1c0.3-2.3,0.4-4.6,0.3-7c-0.1-2.4-0.2-4.6-0.4-6.8
				c-0.2-2.1-0.4-4-0.7-5.7C370.5,152.6,370.3,151.3,370.1,150.5z"/>
		</g>
		<g class="st6">
			<path d="M413.1,159.2c0.1,0.5-0.2,1.2-1,1.9c-0.8,0.7-1.8,1.5-2.9,2.2c1.1,2,1.9,3.7,2.1,5.3c0.4,2.2,0.4,4.2,0,6.1
				c-0.4,1.9-1.2,3.5-2.3,5c-1.1,1.4-2.5,2.6-4.2,3.6c-1.7,1-3.5,1.7-5.6,2.1c-2,0.4-3.9,0.4-5.8,0.2s-3.6-0.8-5.2-1.6
				c-1.6-0.9-2.9-2-4-3.5c-1.1-1.5-1.9-3.3-2.3-5.5c-0.3-1.6-0.3-3.4,0-5.2c0.3-1.9,0.9-3.6,1.8-5.3s2-3.1,3.4-4.3
				c1.4-1.2,3-2,4.8-2.4c0.3-0.1,0.6,0,0.9,0.2c0.3,0.2,0.5,0.5,0.6,0.9c0,0.5-0.2,1-0.5,1.5c-0.4,0.5-0.8,0.9-1.4,1.5
				c-0.5,0.5-1.1,1.1-1.7,1.8c-0.6,0.6-1.1,1.4-1.6,2.3c-0.5,0.9-0.8,1.9-0.9,3.1c-0.2,1.2-0.1,2.5,0.2,4.1c0.3,1.4,0.7,2.6,1.4,3.7
				c0.7,1.1,1.5,2,2.6,2.7c1,0.7,2.2,1.2,3.4,1.5c1.3,0.3,2.6,0.3,4.1,0c1.3-0.2,2.4-0.7,3.4-1.4c1-0.7,1.8-1.6,2.5-2.7
				c0.6-1.1,1.1-2.3,1.3-3.7c0.2-1.4,0.2-2.9-0.2-4.6c-0.2-0.8-0.5-1.8-1-3c-1.3,0.6-2.3,1-3.1,1.1c-0.8,0.1-1.5,0.2-2.3,0.1
				c-0.8-0.1-1.5-0.3-2.2-0.7c-0.7-0.4-1.2-0.8-1.7-1.4c-0.5-0.6-0.8-1.3-1-2.2c-0.3-1.5,0-2.7,0.9-3.7c0.9-0.9,2-1.6,3.4-1.8
				c1.6-0.3,3.1-0.1,4.5,0.6c1.4,0.7,2.6,1.6,3.7,2.8c0.9-0.7,1.8-1.4,2.6-2c0.8-0.6,1.4-0.9,1.8-1c0.4-0.1,0.8,0.1,1.1,0.4
				C412.8,158.3,413,158.7,413.1,159.2z M403.2,162.7c-0.6-0.7-1.2-1.2-1.9-1.6c-0.7-0.4-1.4-0.5-2.2-0.4c-0.7,0.1-1,0.5-0.9,1.1
				c0.1,0.3,0.2,0.6,0.5,0.8c0.3,0.2,0.6,0.4,0.9,0.5c0.3,0.1,0.7,0.1,1,0.2c0.4,0,0.7,0,0.9,0C402.1,163.1,402.6,162.9,403.2,162.7
				z"/>
		</g>
		<g class="st6">
			<path d="M241.9,252.4c0.4,2,0.3,3.9-0.1,5.7c-0.5,1.9-1.3,3.5-2.4,5s-2.5,2.8-4.1,3.8c-1.6,1-3.4,1.8-5.3,2.1
				c-0.4,0.1-0.9,0.1-1.3,0.1c-0.4,0-0.8,0-1.2-0.2c-0.4-0.1-0.7-0.3-1-0.6c-0.3-0.3-0.5-0.6-0.6-1.1c-0.1-0.5,0-1,0.2-1.4
				c0.2-0.4,0.6-0.7,1.2-0.8c0.1,0,0.3,0,0.7,0s0.8-0.1,1.5-0.2c1.1-0.2,2.1-0.6,3.1-1.3c1-0.7,1.8-1.5,2.6-2.5c0.7-1,1.2-2,1.5-3.2
				c0.3-1.2,0.4-2.3,0.1-3.5c-0.2-1.2-0.7-2.4-1.3-3.5c-0.6-1.1-1.4-2-2.3-2.7c-0.9-0.8-1.9-1.3-3-1.6c-1.1-0.3-2.3-0.4-3.5-0.1
				c-1.7,0.3-3.2,1-4.3,2.1c-1.1,1.1-2.1,2.3-2.8,3.9c0.8,1.5,1.5,3.1,2.1,4.7c0.6,1.7,1.2,3.3,1.7,5c0.5,1.7,1,3.3,1.3,4.8
				c0.4,1.5,0.7,3,0.9,4.2c0.1,0.8,0.3,1.8,0.6,3.2c0.2,1.4,0.4,2.8,0.6,4.4c0.2,1.6,0.2,3.3,0.2,4.9c0,1.7-0.2,3.2-0.5,4.6
				c-0.3,1.4-0.8,2.6-1.5,3.6s-1.7,1.6-2.9,1.8c-1,0.2-2,0.1-2.8-0.3c-0.8-0.4-1.5-1.1-2.2-2c-0.6-0.9-1.2-2-1.6-3.3
				c-0.4-1.3-0.8-2.7-1.1-4.3c-0.3-1.7-0.6-3.8-0.9-6.2c-0.3-2.4-0.5-4.9-0.5-7.6c-0.1-2.7,0-5.4,0.2-8.1c0.2-2.8,0.7-5.4,1.3-7.9
				c-0.8-1.3-1.7-2.3-2.4-3.2s-1.5-1.5-2.1-2c-0.6-0.5-1.1-0.9-1.5-1.1c-0.4-0.2-0.6-0.5-0.6-0.7c-0.2-1-0.1-1.7,0.3-2.2
				c0.4-0.5,0.9-0.8,1.4-0.9c1.3-0.3,2.6,0,3.8,0.7c1.2,0.7,2.3,1.8,3.4,3.3c1-1.7,2.1-3.1,3.5-4.2c1.4-1.1,3.1-1.9,5-2.3
				c1.9-0.4,3.7-0.4,5.5,0c1.8,0.4,3.4,1,4.9,2c1.5,1,2.7,2.2,3.8,3.7C240.8,248.8,241.5,250.5,241.9,252.4z M220.8,271.1
				c-0.4-2.2-0.9-4.3-1.4-6.1c-0.5-1.8-1.1-3.4-1.7-4.9c-0.3,2.3-0.4,4.7-0.3,7.2c0.1,2.5,0.2,4.8,0.5,7s0.5,4.3,0.8,6.1
				c0.3,1.9,0.6,3.3,0.8,4.4c0.3,1.6,0.6,2.6,0.9,2.9s0.7,0.5,1.2,0.4c0.7-0.1,1-1.6,1-4.3C222.5,281.2,221.9,277,220.8,271.1z"/>
			<path d="M276.2,237.2c0.1,0.5-0.2,1.2-1,1.9c-0.8,0.7-1.8,1.5-2.9,2.2c1.1,2,1.9,3.7,2.1,5.3c0.4,2.2,0.4,4.2,0,6.1
				c-0.4,1.9-1.2,3.5-2.3,5c-1.1,1.4-2.5,2.6-4.2,3.6c-1.7,1-3.5,1.7-5.6,2.1c-2,0.4-3.9,0.4-5.8,0.2c-1.9-0.2-3.6-0.8-5.2-1.6
				c-1.6-0.9-2.9-2-4-3.5c-1.1-1.5-1.9-3.3-2.3-5.5c-0.3-1.6-0.3-3.4,0-5.2c0.3-1.9,0.9-3.6,1.8-5.3c0.9-1.7,2-3.1,3.4-4.3
				c1.4-1.2,3-2,4.8-2.4c0.3-0.1,0.6,0,0.9,0.2c0.3,0.2,0.5,0.5,0.6,0.9c0,0.5-0.2,1-0.5,1.4c-0.4,0.5-0.8,0.9-1.4,1.5
				c-0.5,0.5-1.1,1.1-1.7,1.8c-0.6,0.6-1.1,1.4-1.6,2.3c-0.5,0.9-0.8,1.9-0.9,3.1c-0.2,1.2-0.1,2.5,0.2,4.1c0.3,1.4,0.7,2.6,1.4,3.7
				c0.7,1.1,1.5,2,2.6,2.7c1,0.7,2.2,1.2,3.4,1.5s2.6,0.3,4.1,0c1.3-0.2,2.4-0.7,3.4-1.4c1-0.7,1.8-1.6,2.5-2.7s1.1-2.3,1.3-3.7
				c0.2-1.4,0.2-2.9-0.2-4.6c-0.2-0.8-0.5-1.8-1-3c-1.3,0.6-2.3,1-3.1,1.1c-0.8,0.1-1.5,0.2-2.3,0.1c-0.8-0.1-1.5-0.3-2.2-0.7
				c-0.7-0.4-1.2-0.8-1.7-1.4c-0.5-0.6-0.8-1.3-1-2.2c-0.3-1.5,0-2.7,0.9-3.7c0.9-0.9,2-1.6,3.4-1.8c1.6-0.3,3.1-0.1,4.5,0.6
				s2.6,1.6,3.7,2.8c0.9-0.7,1.8-1.4,2.6-2c0.8-0.6,1.4-0.9,1.8-1c0.4-0.1,0.8,0.1,1.1,0.4C275.9,236.3,276.1,236.7,276.2,237.2z
				 M266.3,240.7c-0.6-0.7-1.2-1.2-1.9-1.6c-0.7-0.4-1.4-0.5-2.2-0.4c-0.7,0.1-1,0.5-0.9,1.1c0.1,0.3,0.2,0.6,0.5,0.8
				c0.3,0.2,0.6,0.4,0.9,0.5c0.3,0.1,0.7,0.1,1,0.2s0.7,0,0.9,0C265.3,241.1,265.8,240.9,266.3,240.7z"/>
			<path d="M310.3,251.1c0.1,0.6,0.1,1.2-0.1,1.6c-0.2,0.5-0.5,0.9-0.9,1.2s-0.9,0.6-1.5,0.9c-0.6,0.2-1.2,0.4-1.7,0.5
				c-1.8,0.3-3.3,0.3-4.5-0.1c-1.2-0.4-2.1-1.1-2.9-2c-0.7-0.9-1.3-1.9-1.7-3.1c-0.4-1.2-0.7-2.3-0.9-3.4c-0.1-0.6-0.2-1.3-0.2-2.1
				c0-0.8-0.1-1.6-0.1-2.4c0-0.8-0.1-1.6-0.1-2.4c0-0.8-0.1-1.4-0.2-2c-0.1-0.8-0.4-1.2-0.7-1.3c-0.2,0-0.4,0-0.5,0
				c-0.1,0-0.3,0.1-0.5,0.1c-0.6,0.1-1.3,0.3-2.3,0.6c-1,0.3-1.8,0.5-2.5,0.7c-0.1,0-0.3,0-0.5,0.1c-0.3,0-0.6,0.1-1,0.1
				c0.1,0.4,0.2,0.7,0.3,1.1c0.1,0.3,0.2,0.5,0.2,0.6c0.2,1,0.4,2.2,0.5,3.4c0.1,1.3,0.1,2.5,0.1,3.9c-0.1,1.3-0.2,2.6-0.5,3.9
				c-0.3,1.3-0.7,2.5-1.2,3.6c-0.5,1.1-1.2,2-2,2.7s-1.8,1.2-2.9,1.4c-0.8,0.2-1.4-0.3-1.6-1.3c-0.1-0.7-0.1-1.3,0.1-1.8
				c0.2-0.5,0.5-1.1,0.8-1.6c0.3-0.5,0.7-1.1,1.1-1.8c0.4-0.6,0.7-1.4,1-2.4c0.3-0.9,0.4-2,0.5-3.3c0.1-1.3-0.1-2.8-0.4-4.7
				c-0.1-0.5-0.3-1.1-0.6-1.9c-0.3-0.8-0.5-1.5-0.7-2.1c-1-0.2-2-0.5-2.7-1s-1.3-1.2-1.4-2.1c-0.2-1.1,0.1-2,0.8-2.8
				c0.8-0.8,1.7-1.3,2.8-1.5c0.6-0.1,1.2,0,1.8,0.3c0.6,0.3,1.2,0.6,1.8,1c0.6,0.3,1.2,0.7,1.9,0.9c0.6,0.3,1.3,0.3,2.1,0.2
				c0.7-0.1,1.4-0.3,2-0.5c0.6-0.2,1.1-0.4,1.6-0.6c0.5-0.2,1-0.4,1.5-0.5c0.5-0.2,1.1-0.3,1.6-0.4c1.4-0.3,2.5-0.2,3.4,0.3
				c0.8,0.5,1.4,1.4,1.7,2.8c0.2,1,0.3,1.8,0.3,2.5c0,0.7,0,1.5,0.1,2.2c0,0.8,0.1,1.6,0.1,2.6c0.1,1,0.2,2.2,0.5,3.6
				c0.2,0.8,0.3,1.6,0.6,2.4c0.2,0.8,0.5,1.5,0.8,2c0.3,0.6,0.7,1,1.2,1.3c0.5,0.3,1.1,0.4,1.8,0.3c0.8-0.1,1.3-0.4,1.7-0.7
				c0.4-0.3,0.8-0.6,1.1-0.6c0.3-0.1,0.6,0,0.9,0.3C309.9,249.9,310.1,250.4,310.3,251.1z"/>
			<path d="M348.6,244c0.1,0.6,0,1.1-0.4,1.4c-0.4,0.4-0.8,0.6-1.2,0.7c-0.4,0.1-1-0.2-1.7-0.7c-0.7-0.5-1.7-1.1-2.9-1.5
				c-0.7,1.4-1.7,2.7-3,3.8c-1.3,1.1-2.8,1.8-4.4,2.1c-0.6,0.1-1.3,0.2-2.1,0.2s-1.6,0-2.4-0.2c-0.8-0.2-1.5-0.5-2.1-1
				c-0.6-0.5-1-1.2-1.2-2.2c-0.2-0.9,0-1.7,0.4-2.4c0.4-0.7,1-1.3,1.8-1.9c0.7-0.5,1.5-1,2.4-1.3c0.9-0.3,1.7-0.6,2.4-0.7
				c1.4-0.3,2.9-0.4,4.4-0.4c0-0.1,0-0.3,0-0.4c0-0.1,0-0.3-0.1-0.4c-0.2-1-0.5-1.9-1-2.9c-0.5-1-1.1-1.9-1.8-2.7
				c-0.7-0.8-1.5-1.6-2.5-2.3c-0.9-0.7-1.9-1.3-3-1.7l-3.6,12.8c-0.1,0.3-0.2,0.8-0.4,1.2c-0.2,0.5-0.4,1-0.7,1.4
				c-0.3,0.5-0.5,0.9-0.9,1.2c-0.3,0.4-0.7,0.6-1.1,0.7c-0.3,0.1-0.7,0-1.2-0.1c-0.5-0.1-0.7-0.4-0.8-0.8c0-0.2-0.1-0.5-0.1-0.7
				c0-0.2,0-0.5,0.1-0.7c1.1-4,2-7.2,2.6-9.6c0.6-2.3,1.1-4.1,1.3-5.3c0.3-1.2,0.4-1.9,0.5-2.3c0.1-0.3,0.1-0.5,0.1-0.6
				c0,0-0.1-0.2-0.3-0.3c-0.2-0.2-0.4-0.4-0.6-0.8c-0.2-0.3-0.4-0.7-0.6-1.2c-0.2-0.5-0.4-1-0.5-1.6c-0.2-1.1,0-2.1,0.5-3.1
				c0.6-1,1.5-1.6,2.8-1.9c1-0.2,1.9,0,2.7,0.5c0.8,0.5,1.3,1.3,1.5,2.3c0.1,0.3,0.1,0.7,0.1,1.1c0,0.4,0,0.8-0.1,1.3
				c0,0.4-0.1,0.8-0.2,1.2c-0.1,0.4-0.1,0.6-0.2,0.8c1.5,0.6,2.9,1.3,4.3,2.2c1.3,0.9,2.6,1.9,3.6,3.1c1.1,1.2,2,2.4,2.7,3.8
				c0.7,1.4,1.3,2.8,1.6,4.4c0.1,0.3,0.1,0.6,0.1,0.9c0,0.3,0,0.6,0,0.9c1.5,0.4,2.7,0.8,3.6,1.5C347.9,242.5,348.5,243.2,348.6,244
				z M338.2,243.1c-1,0-2,0.1-2.9,0.3c-0.4,0.1-0.8,0.2-1.2,0.4c-0.4,0.2-0.8,0.4-1.1,0.6c-0.3,0.2-0.6,0.5-0.8,0.9
				c-0.2,0.3-0.3,0.7-0.2,1.1c0.1,0.3,0.3,0.5,0.7,0.4c0.4,0,0.8-0.1,1.1-0.1c1.2-0.2,2.1-0.6,2.8-1.3S337.9,244,338.2,243.1z"/>
			<path d="M372,236.7c0.2,1.1-0.1,2.1-0.9,3c-0.8,0.9-1.8,1.7-3,2.3c-1.2,0.7-2.5,1.2-3.8,1.6c-1.3,0.4-2.3,0.7-3,0.8
				c-1.3,0.2-2.6,0.3-4,0.2c-1.4-0.1-2.7-0.5-3.8-1c-1.2-0.6-2.2-1.3-3.1-2.4c-0.9-1-1.5-2.3-1.7-3.8c-0.3-1.6-0.2-3,0.4-4.3
				c0.6-1.3,1.3-2.6,2.2-3.9c-1.1-1-1.8-2.3-2.1-3.9c-0.2-1.1-0.1-2.1,0.3-3.1c0.4-0.9,1-1.8,1.7-2.5c0.8-0.7,1.7-1.3,2.7-1.8
				c1-0.5,2-0.8,3.1-1c0.5-0.1,1.2-0.2,2.1-0.2c0.9,0,1.7,0,2.6,0.2c0.8,0.2,1.6,0.4,2.3,0.8c0.7,0.4,1.1,0.9,1.2,1.6
				c0,0.1,0,0.2,0,0.4c0,0.2,0,0.4-0.1,0.6c0,0.2-0.1,0.4-0.2,0.6c-0.1,0.2-0.3,0.3-0.4,0.3c-0.3,0.1-0.7,0.1-1.1,0
				c-0.4-0.1-0.8-0.1-1.3-0.2c-0.5-0.1-1-0.1-1.7-0.1c-0.6,0-1.3,0-2.1,0.2c-0.5,0.1-1,0.2-1.5,0.4s-0.9,0.4-1.3,0.6
				c-0.4,0.3-0.7,0.6-0.9,1c-0.2,0.4-0.3,0.9-0.2,1.4c0.1,0.3,0.2,0.7,0.3,1c0.1,0.4,0.4,0.6,0.7,0.8c0.2,0,0.4-0.1,0.7-0.2
				c0.3-0.1,0.5-0.2,0.9-0.2c0.5-0.1,1-0.2,1.5-0.2s1,0,1.5,0.1c0.5,0.1,0.9,0.3,1.2,0.6s0.6,0.7,0.7,1.2c0.2,0.9-0.1,1.6-0.7,2.2
				c-0.6,0.6-1.4,0.9-2.2,1.1c-1,0.2-1.7,0.2-2.2,0.1c-0.5-0.1-0.8-0.1-1-0.1c0,0-0.2,0.1-0.4,0.3c-0.2,0.2-0.4,0.5-0.6,0.9
				c-0.2,0.4-0.4,0.9-0.5,1.6c-0.1,0.6-0.1,1.4,0.1,2.3c0.2,0.8,0.5,1.5,1,2.1c0.5,0.5,1.1,1,1.9,1.2c0.7,0.3,1.5,0.5,2.3,0.5
				c0.8,0.1,1.5,0,2.2-0.1c0.8-0.2,1.7-0.5,2.6-0.9c0.9-0.4,1.7-0.9,2.4-1.4c0.7-0.5,1.4-1,2-1.4c0.6-0.5,1.1-0.8,1.4-1.1
				c0.7-0.1,1.1,0,1.4,0.4C371.8,235.8,371.9,236.2,372,236.7z"/>
		</g>
		<g class="st6">
			<path d="M194.8,321.9c0.2,1-0.1,1.9-0.9,2.7c-0.8,0.9-1.7,1.6-2.9,2.3s-2.3,1.3-3.5,1.7c-1.2,0.5-2.2,0.7-2.9,0.9
				c-1.9,0.4-3.8,0.4-5.6,0.1c-1.8-0.3-3.5-0.8-5-1.7c-1.5-0.9-2.7-2-3.8-3.4c-1-1.4-1.8-3.1-2.1-5c-0.4-2.2-0.4-4.2,0-6.1
				c0.4-1.9,1.1-3.5,2.2-4.9c1.1-1.4,2.4-2.6,4.1-3.6c1.7-1,3.6-1.7,5.7-2.1c1-0.2,2-0.3,3.1-0.3c1.1,0,2.2,0.1,3.2,0.4
				c1,0.3,1.9,0.8,2.6,1.5c0.7,0.7,1.2,1.6,1.5,2.9c0.1,0.7,0.1,1.4,0,2.2c-0.1,0.8-0.4,1.5-0.7,2.2c-0.3,0.7-0.8,1.3-1.3,1.8
				c-0.5,0.5-1.1,0.8-1.7,1c-1.2,0.2-2.1,0.2-2.6-0.1c-0.5-0.3-0.9-0.7-1-1.4c-0.1-0.4,0-0.9,0.2-1.3c0.2-0.4,0.4-0.9,0.7-1.3
				c0.3-0.4,0.5-0.8,0.7-1.2c0.2-0.4,0.3-0.8,0.2-1.3c-0.1-0.5-0.3-0.9-0.7-1.1c-0.4-0.2-0.8-0.3-1.2-0.4c-0.4,0-0.9,0-1.4,0.1
				s-0.9,0.1-1.2,0.2c-1.3,0.2-2.4,0.7-3.4,1.3c-1,0.6-1.8,1.4-2.4,2.4c-0.6,0.9-1,2-1.2,3.2c-0.2,1.2-0.2,2.4,0.1,3.8
				c0.3,1.4,0.7,2.6,1.4,3.7s1.5,1.9,2.4,2.5c0.9,0.6,2,1.1,3.2,1.3c1.2,0.2,2.5,0.2,3.8,0c1.1-0.2,2.2-0.6,3.1-1.1s1.9-1.1,2.6-1.6
				c0.8-0.5,1.4-1,2-1.5c0.6-0.4,1-0.7,1.3-0.8c0.5-0.1,0.8,0.1,1,0.5C194.6,321,194.7,321.4,194.8,321.9z"/>
			<path d="M228.4,317.9c0.1,0.7,0.1,1.3-0.2,1.8c-0.3,0.5-0.6,0.9-1.1,1.2c-0.5,0.3-1,0.6-1.7,0.8c-0.6,0.2-1.2,0.3-1.7,0.4
				c-1.1,0.2-2.3,0.2-3.5-0.1c-1.2-0.3-2.3-0.7-3.2-1.4c-1.3,1.1-2.6,2-3.8,2.8c-1.2,0.8-2.7,1.4-4.5,1.7c-1.5,0.3-3.1,0.3-4.5,0
				c-1.5-0.3-2.8-0.9-4.1-1.7c-1.2-0.8-2.3-1.8-3.1-3.1c-0.9-1.2-1.4-2.6-1.7-4.2c-0.4-1.8-0.4-3.8-0.1-5.7c0.3-2,0.8-3.8,1.7-5.5
				c0.9-1.7,2.1-3.1,3.5-4.3c1.5-1.2,3.2-2,5.3-2.4c0.4-0.1,1-0.2,1.6-0.2c0.6-0.1,1.3-0.1,1.9,0c0.6,0.1,1.2,0.3,1.7,0.6
				c0.5,0.3,0.8,0.8,0.9,1.4c0.1,0.7,0,1.1-0.2,1.5c-0.3,0.3-0.7,0.5-1.2,0.6c-0.3,0.1-0.6,0.1-0.8,0c-0.2,0-0.5-0.1-0.7-0.1
				c-0.2,0-0.5-0.1-0.8-0.1c-0.3,0-0.7,0-1.1,0.1c-1.4,0.3-2.5,0.8-3.3,1.6c-0.9,0.8-1.5,1.8-2,2.9c-0.5,1.1-0.8,2.3-0.9,3.5
				c-0.1,1.2,0,2.4,0.2,3.5c0.2,1.1,0.5,2.1,1,3c0.4,0.9,1,1.7,1.7,2.4c0.7,0.6,1.5,1.1,2.4,1.4c0.9,0.3,2,0.3,3.2,0.1
				c0.6-0.1,1.3-0.3,1.9-0.7c0.7-0.3,1.3-0.7,1.8-1.2c0.5-0.5,0.9-1,1.2-1.7c0.3-0.6,0.3-1.3,0.2-2.1c-0.1-0.7-0.3-1.3-0.4-1.9
				c-0.1-0.6-0.3-1-0.3-1.4c-0.2-1.3-0.4-2.8-0.6-4.4c-0.1-1.6-0.2-3.1,0-4.6c0.1-1.4,0.4-2.7,0.9-3.7c0.5-1.1,1.2-1.7,2.2-1.9
				c0.6-0.1,1.1,0,1.4,0.2c0.4,0.2,0.7,0.6,1,1c0.3,0.4,0.5,0.9,0.7,1.5c0.2,0.5,0.3,1.1,0.4,1.6c0.2,0.9,0.3,1.9,0.3,3.1
				c0,1.1,0,2.2-0.1,3.3c0,1-0.1,2-0.2,2.8c-0.1,0.8-0.1,1.4,0,1.7c0.1,0.7,0.3,1.5,0.5,2.2c0.2,0.7,0.5,1.4,0.8,1.9
				c0.3,0.6,0.8,1,1.3,1.3c0.5,0.3,1.2,0.3,2,0.2c0.5-0.1,1-0.3,1.4-0.5c0.4-0.2,0.8-0.4,1.3-0.5c0.4-0.1,0.8,0,1.2,0.2
				C228.1,317.2,228.3,317.5,228.4,317.9z"/>
		</g>
		<g class="st6">
			<path d="M255.7,277.9c0.3,1.5,0.5,3.3,0.8,5.5c0.2,2.2,0.4,4.6,0.4,7.1c0,2.5,0,5.2-0.3,7.9c-0.2,2.7-0.7,5.3-1.3,7.7
				c0.8,1.3,1.6,2.3,2.4,3.1c0.8,0.8,1.5,1.4,2,1.9c0.6,0.5,1.1,0.9,1.5,1.1s0.6,0.4,0.6,0.6c0.2,1,0.1,1.7-0.3,2.2
				c-0.4,0.5-0.9,0.8-1.4,0.9c-1.4,0.3-2.6,0-3.8-0.7c-1.2-0.7-2.3-1.8-3.4-3.2c-1,1.7-2.1,3.1-3.5,4.2c-1.4,1.1-3.1,1.9-5.1,2.3
				c-1.9,0.4-3.7,0.4-5.5,0c-1.8-0.4-3.4-1-4.9-2c-1.5-1-2.7-2.2-3.8-3.7c-1-1.5-1.7-3.2-2.1-5.1c-0.4-2-0.3-3.9,0.1-5.8
				c0.5-1.9,1.3-3.5,2.4-5c1.1-1.5,2.5-2.8,4.1-3.8c1.6-1,3.4-1.8,5.3-2.1c0.4-0.1,0.9-0.1,1.3-0.1c0.4,0,0.8,0,1.2,0.2
				c0.4,0.1,0.7,0.3,1,0.6s0.5,0.6,0.6,1.1c0.1,0.5,0,1-0.2,1.4c-0.2,0.4-0.6,0.7-1.2,0.8c-0.1,0-0.3,0-0.7,0
				c-0.3,0-0.8,0.1-1.5,0.2c-1.1,0.2-2.2,0.7-3.1,1.3c-1,0.7-1.8,1.5-2.5,2.5c-0.7,1-1.2,2-1.5,3.2c-0.3,1.2-0.4,2.3-0.1,3.5
				c0.2,1.2,0.7,2.4,1.3,3.5s1.4,2,2.3,2.7c0.9,0.7,1.9,1.3,3,1.6c1.1,0.3,2.3,0.4,3.5,0.1c1.7-0.3,3.1-1,4.3-2
				c1.1-1,2.1-2.3,2.8-3.9c-0.8-1.5-1.5-3.1-2.1-4.7c-0.6-1.7-1.2-3.3-1.7-5c-0.5-1.7-1-3.3-1.3-4.8c-0.4-1.6-0.7-3-0.9-4.3
				c-0.1-0.8-0.3-1.8-0.6-3.1c-0.2-1.3-0.4-2.7-0.5-4.1c-0.1-1.5-0.2-3-0.2-4.5c0-1.5,0.2-2.9,0.5-4.2c0.3-1.3,0.9-2.4,1.6-3.3
				c0.7-0.9,1.7-1.5,2.9-1.7c1-0.2,2-0.1,2.8,0.3c0.8,0.4,1.5,1.1,2.2,2c0.6,0.9,1.2,2,1.6,3.3C255,274.9,255.4,276.3,255.7,277.9z
				 M250.8,277c-0.3-1.6-0.6-2.6-0.9-2.9c-0.3-0.4-0.7-0.5-1.2-0.4c-0.3,0.1-0.6,0.4-0.8,0.9c-0.2,0.5-0.3,1.4-0.3,2.6
				c0,1.2,0.1,2.8,0.4,4.7c0.3,2,0.7,4.4,1.2,7.3c0.8,4.4,1.9,8.1,3.1,11.1c0.3-2.3,0.4-4.6,0.3-7c-0.1-2.4-0.2-4.6-0.4-6.8
				c-0.2-2.1-0.4-4-0.7-5.7C251.2,279.1,251,277.9,250.8,277z"/>
		</g>
		<g class="st6">
			<path d="M296.1,305c0.1,0.7,0.1,1.3-0.2,1.8c-0.3,0.5-0.6,0.9-1.1,1.2c-0.5,0.3-1.1,0.6-1.7,0.8c-0.6,0.2-1.2,0.3-1.7,0.4
				c-1.1,0.2-2.3,0.2-3.5-0.1c-1.2-0.3-2.3-0.7-3.2-1.4c-1.3,1.1-2.6,2-3.8,2.8c-1.2,0.8-2.7,1.4-4.5,1.7c-1.5,0.3-3.1,0.3-4.5,0
				c-1.5-0.3-2.8-0.9-4.1-1.7c-1.2-0.8-2.3-1.8-3.1-3.1c-0.9-1.2-1.4-2.6-1.7-4.2c-0.4-1.9-0.4-3.8-0.1-5.7c0.3-2,0.8-3.8,1.7-5.5
				c0.9-1.7,2.1-3.1,3.5-4.3c1.5-1.2,3.2-2,5.3-2.4c0.4-0.1,1-0.2,1.6-0.2c0.6-0.1,1.3-0.1,1.9,0c0.6,0.1,1.2,0.3,1.7,0.6
				s0.8,0.8,0.9,1.4c0.1,0.7,0,1.1-0.2,1.5c-0.3,0.3-0.7,0.5-1.2,0.6c-0.3,0.1-0.6,0.1-0.8,0c-0.2,0-0.5-0.1-0.7-0.1
				s-0.5-0.1-0.8-0.1c-0.3,0-0.7,0-1.1,0.1c-1.3,0.3-2.5,0.8-3.3,1.6c-0.9,0.8-1.5,1.8-2,2.9c-0.5,1.1-0.8,2.3-0.9,3.5
				c-0.1,1.2,0,2.4,0.2,3.5c0.2,1.1,0.5,2.1,1,3c0.4,0.9,1,1.7,1.7,2.4c0.7,0.6,1.5,1.1,2.4,1.4c0.9,0.3,2,0.3,3.2,0.1
				c0.6-0.1,1.3-0.3,1.9-0.7c0.7-0.3,1.3-0.7,1.8-1.2c0.5-0.5,0.9-1,1.2-1.7c0.3-0.6,0.3-1.3,0.2-2.1c-0.1-0.7-0.3-1.3-0.4-1.9
				c-0.1-0.6-0.3-1-0.3-1.4c-0.3-1.3-0.4-2.8-0.6-4.4c-0.1-1.6-0.2-3.1,0-4.6c0.1-1.4,0.4-2.7,0.9-3.7c0.5-1.1,1.2-1.7,2.2-1.9
				c0.6-0.1,1.1,0,1.4,0.2c0.4,0.2,0.7,0.6,1,1c0.3,0.4,0.5,0.9,0.7,1.5c0.2,0.5,0.3,1.1,0.4,1.6c0.2,0.9,0.3,1.9,0.3,3.1
				c0,1.1,0,2.2-0.1,3.3c0,1-0.1,2-0.2,2.8c-0.1,0.8-0.1,1.4,0,1.7c0.1,0.7,0.3,1.5,0.5,2.2c0.2,0.7,0.5,1.4,0.8,1.9
				c0.3,0.6,0.8,1,1.3,1.3c0.5,0.3,1.2,0.3,2,0.2c0.5-0.1,1-0.3,1.4-0.5c0.4-0.2,0.8-0.4,1.3-0.5c0.4-0.1,0.8,0,1.2,0.2
				C295.8,304.3,296,304.6,296.1,305z"/>
			<path d="M323,300.8c0.1,0.6,0,1.1-0.4,1.4c-0.4,0.4-0.8,0.6-1.2,0.7c-0.4,0.1-1-0.2-1.7-0.7c-0.7-0.5-1.7-1.1-2.9-1.5
				c-0.7,1.4-1.7,2.7-3,3.8c-1.3,1.1-2.8,1.8-4.4,2.1c-0.6,0.1-1.3,0.2-2.1,0.2c-0.8,0-1.6,0-2.4-0.2c-0.8-0.2-1.5-0.5-2.1-1
				c-0.6-0.5-1-1.2-1.2-2.2c-0.2-0.9,0-1.7,0.4-2.4s1-1.3,1.8-1.9c0.7-0.5,1.5-1,2.4-1.3c0.9-0.3,1.7-0.6,2.4-0.7
				c1.4-0.3,2.9-0.4,4.4-0.4c0-0.1,0-0.3,0-0.4c0-0.1,0-0.3-0.1-0.4c-0.2-1-0.5-1.9-1-2.9c-0.5-1-1.1-1.9-1.8-2.7
				c-0.7-0.8-1.5-1.6-2.5-2.3c-0.9-0.7-1.9-1.3-3-1.7l-3.6,12.8c-0.1,0.3-0.2,0.8-0.4,1.2c-0.2,0.5-0.4,1-0.7,1.4
				c-0.3,0.5-0.5,0.9-0.9,1.2c-0.3,0.4-0.7,0.6-1.1,0.7c-0.3,0.1-0.7,0-1.2-0.1c-0.5-0.1-0.7-0.4-0.8-0.8c0-0.2-0.1-0.5-0.1-0.7
				c0-0.2,0-0.5,0.1-0.7c1.1-4,2-7.2,2.6-9.6c0.6-2.3,1.1-4.1,1.3-5.3c0.3-1.2,0.4-1.9,0.5-2.3c0.1-0.3,0.1-0.5,0.1-0.6
				c0,0-0.1-0.2-0.3-0.3c-0.2-0.2-0.4-0.4-0.6-0.8c-0.2-0.3-0.4-0.7-0.6-1.2c-0.2-0.5-0.4-1-0.5-1.6c-0.2-1.1,0-2.1,0.5-3.1
				s1.5-1.6,2.8-1.9c1-0.2,1.9,0,2.7,0.5c0.8,0.5,1.3,1.3,1.5,2.3c0.1,0.3,0.1,0.7,0.1,1.1c0,0.4,0,0.8-0.1,1.3
				c0,0.4-0.1,0.8-0.2,1.2c-0.1,0.4-0.1,0.6-0.2,0.8c1.5,0.6,2.9,1.3,4.3,2.2c1.3,0.9,2.6,1.9,3.7,3.1c1.1,1.2,2,2.4,2.7,3.8
				c0.7,1.4,1.3,2.8,1.6,4.4c0.1,0.3,0.1,0.6,0.1,0.9c0,0.3,0,0.6,0,0.9c1.5,0.4,2.7,0.8,3.6,1.5C322.3,299.3,322.8,300,323,300.8z
				 M312.6,299.9c-1,0-2,0.1-2.9,0.3c-0.4,0.1-0.8,0.2-1.2,0.4c-0.4,0.2-0.8,0.4-1.1,0.6c-0.3,0.2-0.6,0.5-0.8,0.9
				c-0.2,0.3-0.3,0.7-0.2,1.1c0.1,0.3,0.3,0.5,0.7,0.4c0.4,0,0.8-0.1,1.1-0.1c1.2-0.2,2.1-0.6,2.8-1.3
				C311.7,301.5,312.2,300.8,312.6,299.9z"/>
			<path d="M340.8,297.2c0.1,0.6,0,1.1-0.3,1.6c-0.3,0.5-0.8,0.9-1.3,1.3c-0.6,0.4-1.2,0.7-1.8,0.9c-0.7,0.2-1.2,0.4-1.7,0.5
				c-1.2,0.2-2.3,0.2-3.3-0.1c-1-0.3-1.9-0.8-2.7-1.4c-0.8-0.7-1.5-1.5-2-2.5c-0.5-1-0.9-2-1.1-3.1l-2.6-13.8l-2,0.4
				c-0.8,0.2-1.5,0-1.9-0.3c-0.5-0.4-0.8-0.9-0.9-1.6c-0.1-0.7,0-1.2,0.2-1.7c0.3-0.5,0.8-0.8,1.5-1l2.2-0.4l-1.7-8.8
				c-0.2-0.8,0-1.5,0.5-2c0.5-0.5,1.1-0.8,1.8-1c0.7-0.1,1.3-0.1,1.9,0.2c0.6,0.3,1,0.8,1.1,1.5l1.7,9l5.6-1.1
				c0.6-0.1,1.1,0,1.6,0.3s0.8,0.8,0.9,1.6c0.1,0.6,0.1,1.1-0.2,1.7c-0.2,0.5-0.7,0.9-1.4,1l-5.7,1.1l2.4,12.5
				c0.1,0.7,0.3,1.4,0.6,2c0.2,0.6,0.5,1.2,0.9,1.6c0.4,0.5,0.8,0.8,1.3,1c0.5,0.2,1.1,0.2,1.8,0.1c0.4-0.1,0.8-0.2,1.1-0.5
				c0.3-0.2,0.7-0.4,1-0.4c0.5-0.1,0.9-0.1,1.4,0.1C340.3,296.2,340.6,296.6,340.8,297.2z"/>
		</g>
		<g class="st6">
			<path d="M371.1,291.4c0.1,0.6,0.1,1.2-0.1,1.6c-0.2,0.5-0.5,0.9-0.9,1.2c-0.4,0.3-0.9,0.6-1.5,0.9c-0.6,0.2-1.2,0.4-1.7,0.5
				c-1.8,0.3-3.3,0.3-4.5-0.1c-1.2-0.4-2.1-1.1-2.9-2c-0.7-0.9-1.3-1.9-1.7-3.1c-0.4-1.2-0.7-2.3-0.9-3.4c-0.1-0.6-0.2-1.3-0.2-2.1
				c0-0.8-0.1-1.6-0.1-2.4c0-0.8-0.1-1.6-0.1-2.4c0-0.8-0.1-1.4-0.2-2c-0.1-0.8-0.4-1.2-0.7-1.3c-0.2,0-0.4,0-0.5,0
				c-0.1,0-0.3,0.1-0.5,0.1c-0.6,0.1-1.3,0.3-2.3,0.6c-1,0.3-1.8,0.5-2.5,0.7c-0.1,0-0.3,0-0.5,0.1c-0.3,0-0.6,0.1-1,0.1
				c0.1,0.4,0.2,0.7,0.3,1.1c0.1,0.3,0.2,0.5,0.2,0.6c0.2,1,0.4,2.2,0.5,3.4c0.1,1.3,0.1,2.5,0.1,3.9c-0.1,1.3-0.2,2.6-0.5,3.9
				c-0.3,1.3-0.7,2.5-1.2,3.6c-0.5,1.1-1.2,2-2,2.7c-0.8,0.7-1.8,1.2-2.9,1.4c-0.8,0.2-1.4-0.3-1.6-1.3c-0.1-0.7-0.1-1.3,0.1-1.8
				c0.2-0.5,0.5-1.1,0.8-1.6c0.3-0.5,0.7-1.1,1.1-1.8c0.4-0.7,0.7-1.4,1-2.4c0.3-0.9,0.4-2,0.5-3.3c0.1-1.3-0.1-2.8-0.4-4.7
				c-0.1-0.5-0.3-1.1-0.6-1.9c-0.3-0.8-0.5-1.5-0.7-2.1c-1-0.2-2-0.5-2.7-1c-0.8-0.5-1.3-1.2-1.4-2.1c-0.2-1.1,0.1-2,0.8-2.8
				c0.8-0.8,1.7-1.3,2.8-1.5c0.6-0.1,1.2,0,1.8,0.3c0.6,0.3,1.2,0.6,1.8,1c0.6,0.3,1.2,0.7,1.9,0.9c0.6,0.3,1.3,0.3,2.1,0.2
				c0.7-0.1,1.4-0.3,2-0.5c0.6-0.2,1.1-0.4,1.6-0.6c0.5-0.2,1-0.4,1.5-0.5c0.5-0.2,1.1-0.3,1.6-0.4c1.4-0.3,2.5-0.2,3.4,0.3
				c0.8,0.5,1.4,1.4,1.7,2.8c0.2,1,0.3,1.8,0.3,2.5c0,0.7,0,1.5,0.1,2.2c0,0.8,0.1,1.6,0.1,2.6c0.1,1,0.2,2.2,0.5,3.6
				c0.2,0.8,0.3,1.6,0.6,2.4c0.2,0.8,0.5,1.5,0.8,2c0.3,0.6,0.7,1,1.2,1.3c0.5,0.3,1.1,0.4,1.8,0.3c0.8-0.1,1.3-0.4,1.7-0.7
				c0.4-0.3,0.8-0.6,1.1-0.6c0.3-0.1,0.6,0,0.9,0.3C370.7,290.3,370.9,290.7,371.1,291.4z"/>
		</g>
		<g class="st6">
			<path d="M403.9,284.5c0.1,0.7,0.1,1.3-0.2,1.8c-0.3,0.5-0.6,0.9-1.1,1.2c-0.5,0.3-1.1,0.6-1.7,0.8c-0.6,0.2-1.2,0.3-1.7,0.4
				c-1.1,0.2-2.3,0.2-3.5-0.1c-1.2-0.3-2.3-0.7-3.2-1.4c-1.3,1.1-2.6,2-3.8,2.8c-1.2,0.8-2.7,1.4-4.5,1.7c-1.5,0.3-3.1,0.3-4.5,0
				c-1.5-0.3-2.8-0.9-4.1-1.7c-1.2-0.8-2.3-1.8-3.1-3.1c-0.9-1.2-1.4-2.6-1.7-4.2c-0.4-1.9-0.4-3.8-0.1-5.7c0.3-2,0.8-3.8,1.7-5.5
				c0.9-1.7,2.1-3.1,3.5-4.3c1.5-1.2,3.2-2,5.3-2.4c0.4-0.1,1-0.2,1.6-0.2c0.6-0.1,1.3-0.1,1.9,0c0.6,0.1,1.2,0.3,1.7,0.6
				c0.5,0.3,0.8,0.8,0.9,1.4c0.1,0.7,0,1.1-0.2,1.5c-0.3,0.3-0.7,0.5-1.2,0.6c-0.3,0.1-0.6,0.1-0.8,0c-0.2,0-0.5-0.1-0.7-0.1
				s-0.5-0.1-0.8-0.1c-0.3,0-0.7,0-1.1,0.1c-1.3,0.3-2.5,0.8-3.3,1.6c-0.9,0.8-1.5,1.8-2,2.9c-0.5,1.1-0.8,2.3-0.9,3.5
				c-0.1,1.2,0,2.4,0.2,3.5c0.2,1.1,0.5,2.1,1,3c0.4,0.9,1,1.7,1.7,2.4c0.7,0.6,1.5,1.1,2.4,1.4c0.9,0.3,2,0.3,3.2,0.1
				c0.6-0.1,1.3-0.3,1.9-0.7c0.7-0.3,1.3-0.7,1.8-1.2c0.5-0.5,0.9-1,1.2-1.7c0.3-0.6,0.3-1.3,0.2-2.1c-0.1-0.7-0.3-1.3-0.4-1.9
				c-0.1-0.6-0.3-1-0.3-1.4c-0.3-1.3-0.4-2.8-0.6-4.4c-0.1-1.6-0.2-3.1,0-4.6c0.1-1.4,0.4-2.7,0.9-3.7c0.5-1.1,1.2-1.7,2.2-1.9
				c0.6-0.1,1.1,0,1.4,0.2c0.4,0.2,0.7,0.6,1,1c0.3,0.4,0.5,0.9,0.7,1.5c0.2,0.5,0.3,1.1,0.4,1.6c0.2,0.9,0.3,1.9,0.3,3.1
				c0,1.1,0,2.2-0.1,3.3c0,1-0.1,2-0.2,2.8c-0.1,0.8-0.1,1.4,0,1.7c0.1,0.7,0.3,1.5,0.5,2.2c0.2,0.7,0.5,1.4,0.8,1.9
				c0.3,0.6,0.8,1,1.3,1.3c0.5,0.3,1.2,0.3,2,0.2c0.5-0.1,1-0.3,1.4-0.5s0.8-0.4,1.3-0.5c0.4-0.1,0.8,0,1.2,0.2
				C403.6,283.8,403.8,284.1,403.9,284.5z"/>
			<path d="M434.3,279.4c0.1,0.6,0.1,1.2-0.1,1.6c-0.2,0.5-0.5,0.9-0.9,1.2c-0.4,0.3-0.9,0.6-1.5,0.9c-0.6,0.2-1.2,0.4-1.7,0.5
				c-1.8,0.3-3.3,0.3-4.5-0.1c-1.2-0.4-2.1-1.1-2.9-2s-1.3-1.9-1.7-3.1c-0.4-1.2-0.7-2.3-0.9-3.4c-0.1-0.6-0.2-1.3-0.2-2.1
				c0-0.8-0.1-1.6-0.1-2.4c0-0.8-0.1-1.6-0.1-2.4s-0.1-1.4-0.2-2c-0.1-0.8-0.4-1.2-0.7-1.3c-0.2,0-0.4,0-0.5,0
				c-0.1,0-0.3,0.1-0.5,0.1c-0.6,0.1-1.3,0.3-2.3,0.6c-1,0.3-1.8,0.5-2.5,0.7c-0.1,0-0.3,0-0.5,0.1c-0.3,0-0.6,0.1-1,0.1
				c0.1,0.4,0.2,0.7,0.3,1.1c0.1,0.3,0.2,0.5,0.2,0.6c0.2,1,0.4,2.2,0.5,3.4c0.1,1.3,0.1,2.5,0.1,3.9c-0.1,1.3-0.2,2.6-0.5,3.9
				c-0.3,1.3-0.7,2.5-1.2,3.6c-0.5,1.1-1.2,2-2,2.7c-0.8,0.7-1.8,1.2-2.9,1.4c-0.8,0.2-1.4-0.3-1.6-1.3c-0.1-0.7-0.1-1.3,0.1-1.8
				c0.2-0.5,0.5-1.1,0.8-1.6c0.3-0.5,0.7-1.1,1.1-1.8c0.4-0.6,0.7-1.4,1-2.4c0.3-0.9,0.4-2,0.5-3.3c0.1-1.3-0.1-2.8-0.4-4.7
				c-0.1-0.5-0.3-1.1-0.6-1.9c-0.3-0.8-0.5-1.5-0.7-2.1c-1-0.2-2-0.5-2.7-1c-0.8-0.5-1.3-1.2-1.4-2.1c-0.2-1.1,0.1-2,0.8-2.8
				c0.8-0.8,1.7-1.3,2.8-1.5c0.6-0.1,1.2,0,1.8,0.3c0.6,0.3,1.2,0.6,1.8,1c0.6,0.3,1.2,0.7,1.9,0.9c0.6,0.3,1.3,0.3,2.1,0.2
				c0.7-0.1,1.4-0.3,2-0.5c0.6-0.2,1.1-0.4,1.6-0.6c0.5-0.2,1-0.4,1.5-0.5c0.5-0.2,1.1-0.3,1.6-0.4c1.4-0.3,2.5-0.2,3.4,0.3
				c0.8,0.5,1.4,1.4,1.7,2.8c0.2,1,0.3,1.8,0.3,2.5c0,0.7,0,1.5,0.1,2.2s0.1,1.6,0.1,2.6c0.1,1,0.2,2.2,0.5,3.6
				c0.2,0.8,0.3,1.6,0.6,2.4c0.2,0.8,0.5,1.5,0.8,2c0.3,0.6,0.7,1,1.2,1.3c0.5,0.3,1.1,0.4,1.8,0.3c0.8-0.1,1.3-0.4,1.7-0.7
				c0.4-0.3,0.8-0.6,1.1-0.6c0.3-0.1,0.6,0,0.9,0.3C434,278.2,434.1,278.7,434.3,279.4z"/>
		</g>
		<g class="st6">
			<path d="M295,414.8c0,0.2,0,0.4-0.1,0.6c-0.1,0.2-0.2,0.3-0.3,0.4c-0.2,0.1-0.3,0.2-0.5,0.3s-0.4,0.1-0.6,0.2
				c-0.1,0-0.2,0-0.3,0.1c-0.1,0-0.2,0.1-0.3,0.1l1.8,9.5c0.1,0.5,0,0.8-0.3,1.1c-0.3,0.3-0.6,0.5-1,0.5c-0.3,0.1-0.7,0-1-0.2
				c-0.3-0.2-0.5-0.4-0.6-0.8l-1.8-9.4c-0.9,0.3-1.7,0.6-2.6,1c-0.9,0.4-1.7,0.8-2.6,1.2c-0.2,1.4-0.4,2.8-0.8,4.1
				c-0.3,1.3-0.8,2.4-1.4,3.5c-0.6,1-1.4,1.9-2.3,2.6c-0.9,0.7-2,1.2-3.3,1.4c-0.5,0.1-0.9,0.1-1.3,0.1c-0.4,0-0.8-0.1-1.2-0.3
				c-0.4-0.2-0.7-0.4-0.9-0.7c-0.3-0.3-0.4-0.7-0.5-1.2c-0.1-0.7,0-1.5,0.3-2.3c0.4-0.9,0.9-1.8,1.7-2.8c0.8-1,1.8-1.9,3-2.9
				s2.6-1.9,4.2-2.8c0.2-1.8,0.4-3.5,0.5-5.1c0.1-1.6,0.2-3,0.2-4c0.1-0.6,0.2-1.3,0.3-2c0.2-0.7,0.4-1.4,0.7-2
				c0.3-0.6,0.7-1.2,1.2-1.6c0.5-0.5,1.1-0.8,1.9-0.9c0.4-0.1,0.7-0.1,1.1,0c0.4,0,0.7,0.1,1.1,0.3s0.6,0.4,0.9,0.6
				c0.2,0.3,0.4,0.6,0.5,1l1.9,10.1c0.1,0,0.2,0,0.3-0.1c0.1,0,0.2-0.1,0.3-0.1c0.4-0.1,0.7-0.1,1-0.1s0.4,0.1,0.6,0.1
				s0.2,0.2,0.3,0.3C294.9,414.5,295,414.6,295,414.8z M281.7,421c-0.9,0.6-1.8,1.2-2.6,1.8c-0.8,0.6-1.5,1.2-2,1.8
				c-0.6,0.6-1,1.2-1.3,1.8c-0.3,0.6-0.4,1.2-0.2,1.7c0.1,0.3,0.2,0.5,0.4,0.6c0.2,0.1,0.4,0.1,0.7,0.1c0.7-0.1,1.3-0.4,1.9-0.9
				c0.5-0.5,1-1,1.4-1.7c0.4-0.7,0.8-1.5,1-2.4C281.3,422.9,281.5,422,281.7,421z M287.8,405.6c-0.1-0.3-0.2-0.6-0.3-0.7
				s-0.3-0.1-0.5-0.1c-0.3,0.1-0.5,0.2-0.7,0.5c-0.2,0.3-0.3,0.7-0.4,1.1c-0.1,0.4-0.2,0.8-0.2,1.2c0,0.4-0.1,0.7-0.1,1
				c-0.1,1.3-0.2,2.6-0.2,3.9c-0.1,1.3-0.1,2.7-0.2,4c0.7-0.3,1.4-0.6,2.2-0.9c0.7-0.3,1.5-0.5,2.3-0.8L287.8,405.6z"/>
			<path d="M313.6,420.8c0,0.2,0,0.5,0,0.7c-0.1,0.2-0.1,0.4-0.2,0.5c-0.4,0.4-0.7,0.8-1.1,1.1c-0.4,0.3-0.8,0.7-1.2,1l0.4,2
				c0.1,0.7,0.3,1.6,0.4,2.5c0.1,0.9,0.1,1.8,0,2.6c-0.1,0.8-0.4,1.6-0.8,2.2c-0.4,0.6-1.1,1-2,1.2c-0.5,0.1-1,0.1-1.4-0.1
				c-0.4-0.2-0.8-0.4-1.1-0.7c-0.3-0.3-0.6-0.7-0.8-1.1c-0.2-0.4-0.4-0.9-0.4-1.3c-0.1-0.4-0.1-0.8-0.1-1.3c0-0.5,0.1-1.1,0.3-1.8
				c0.2-0.7,0.5-1.4,1-2.2c0.5-0.8,1.2-1.7,2.1-2.6l-0.4-1.8c-0.6,0.5-1.3,1-2.1,1.6s-1.7,0.9-2.9,1.1c-0.8,0.1-1.5,0.1-2.2,0
				c-0.7-0.2-1.4-0.4-2-0.8c-0.6-0.4-1.1-0.9-1.5-1.5s-0.7-1.3-0.9-2.1c-0.2-0.9-0.2-1.8,0-2.8c0.1-0.9,0.5-1.8,1-2.6
				c0.5-0.8,1.2-1.5,2-2.1c0.8-0.6,1.9-1,3.1-1.3c0.3-0.1,0.6-0.1,0.9-0.1c0.3,0,0.6,0,0.9,0c0.3,0,0.5,0.1,0.8,0.3
				c0.2,0.1,0.4,0.4,0.4,0.7s0,0.6-0.1,0.8c-0.1,0.2-0.3,0.4-0.6,0.4c-0.2,0-0.3,0-0.4,0c-0.1,0-0.2,0-0.3-0.1c-0.1,0-0.3,0-0.4,0
				c-0.1,0-0.3,0-0.6,0c-0.9,0.2-1.6,0.4-2.2,0.8c-0.6,0.4-1,0.8-1.3,1.3c-0.3,0.5-0.5,1-0.6,1.6c-0.1,0.6-0.1,1.2,0.1,1.8
				c0.1,0.5,0.3,1,0.5,1.5c0.2,0.5,0.5,0.8,0.9,1.2s0.8,0.5,1.2,0.7c0.5,0.1,1,0.2,1.6,0c0.9-0.2,1.6-0.4,2.1-0.7
				c0.5-0.3,1-0.7,1.2-1.1c0.3-0.4,0.5-0.9,0.5-1.4c0.1-0.5,0-1-0.1-1.5c0-0.2-0.1-0.4-0.1-0.5c0-0.1-0.1-0.3-0.1-0.4
				c0-0.1-0.1-0.3-0.1-0.4s-0.1-0.4-0.2-0.7c-0.1-0.6-0.2-1.2-0.2-1.7c0-0.5,0-1,0.1-1.5c0.1-0.4,0.3-0.8,0.5-1.1
				c0.2-0.3,0.5-0.5,0.9-0.5c0.3-0.1,0.5,0,0.7,0.1c0.2,0.1,0.4,0.3,0.5,0.5c0.1,0.2,0.2,0.4,0.3,0.7c0.1,0.3,0.1,0.5,0.2,0.8
				c0.1,0.5,0.1,0.9,0.1,1.5c0,0.5,0,1,0,1.5c0,0.5-0.1,0.9-0.1,1.3c0,0.4,0,0.7,0,0.8c0,0.2,0,0.4,0,0.6c0.1,0.6,0.2,1.1,0.4,1.7
				c0.1,0.6,0.2,1.1,0.3,1.7c0.3-0.3,0.6-0.5,0.9-0.8c0.3-0.3,0.7-0.5,1-0.8c0.1-0.1,0.2-0.1,0.3-0.2c0.2,0,0.3,0,0.5,0.2
				C313.4,420.4,313.5,420.6,313.6,420.8z M309.2,425.9c-0.6,0.7-1,1.4-1.3,2.2c-0.3,0.8-0.4,1.8-0.1,2.9c0,0.1,0.1,0.3,0.1,0.4
				c0,0.2,0.1,0.3,0.2,0.5c0.1,0.1,0.2,0.3,0.3,0.4c0.1,0.1,0.3,0.1,0.5,0.1c0.3-0.1,0.5-0.3,0.6-0.6s0.2-0.8,0.2-1.3
				c0-0.5,0-0.9,0-1.4c0-0.5-0.1-0.9-0.1-1.2L309.2,425.9z"/>
		</g>
		<g class="st6">
			<path d="M330.3,417.9c0.1,0.3,0,0.6-0.2,0.8c-0.2,0.2-0.4,0.5-0.7,0.6c-0.3,0.2-0.6,0.3-0.9,0.4c-0.3,0.1-0.6,0.2-0.8,0.2
				c-1,0.2-1.9,0-2.7-0.4c-0.7-0.5-1.3-1.2-1.6-2.1c-0.2,0.6-0.5,1.1-0.7,1.6c-0.3,0.5-0.5,0.9-0.9,1.2c-0.3,0.4-0.7,0.7-1.2,0.9
				c-0.5,0.2-1,0.4-1.7,0.5c-0.7,0.1-1.4,0.1-2-0.2c-0.6-0.3-1.1-0.7-1.5-1.2c-0.4-0.5-0.7-1.1-1-1.8c-0.3-0.7-0.4-1.3-0.6-2
				l-1.2-6.3c-0.1-0.3,0-0.6,0.3-0.8c0.2-0.3,0.5-0.4,0.9-0.5c0.3-0.1,0.6,0,0.9,0.1c0.3,0.1,0.5,0.3,0.6,0.7l1.1,5.7
				c0.1,0.3,0.2,0.7,0.3,1.2c0.1,0.5,0.3,0.9,0.5,1.3c0.2,0.4,0.5,0.8,0.7,1.1c0.3,0.3,0.6,0.4,1,0.3c0.6-0.1,1.2-0.5,1.7-1
				c0.5-0.5,0.8-1.2,1.1-2c0.3-0.8,0.4-1.6,0.5-2.6c0-0.9,0-1.9-0.2-2.8l-0.5-2.4c-0.1-0.3,0-0.5,0.2-0.8c0.2-0.2,0.5-0.4,0.9-0.5
				c0.3-0.1,0.6,0,0.9,0.1c0.3,0.1,0.5,0.3,0.6,0.7l1.4,7.4c0.1,0.4,0.2,0.7,0.3,1c0.1,0.3,0.3,0.6,0.4,0.8s0.4,0.4,0.7,0.5
				c0.3,0.1,0.6,0.1,0.9,0c0.2,0,0.4-0.1,0.6-0.2c0.2-0.1,0.3-0.2,0.5-0.2c0.2,0,0.5,0,0.7,0C330.1,417.3,330.3,417.5,330.3,417.9z"
				/>
		</g>
		<g class="st6">
			<path d="M346.4,414.6c0.1,0.3,0,0.6-0.1,0.9c-0.1,0.2-0.3,0.4-0.6,0.6c-0.2,0.2-0.5,0.3-0.8,0.4c-0.3,0.1-0.6,0.2-0.8,0.2
				c-0.6,0.1-1.1,0.1-1.7,0c-0.6-0.1-1.1-0.4-1.6-0.7c-0.6,0.5-1.3,1-1.9,1.4c-0.6,0.4-1.3,0.7-2.2,0.8c-0.8,0.1-1.5,0.1-2.2,0
				s-1.4-0.4-2-0.8c-0.6-0.4-1.1-0.9-1.5-1.5c-0.4-0.6-0.7-1.3-0.9-2.1c-0.2-0.9-0.2-1.9-0.1-2.8c0.1-1,0.4-1.9,0.8-2.7
				c0.4-0.8,1-1.5,1.7-2.1c0.7-0.6,1.6-1,2.6-1.2c0.2,0,0.5-0.1,0.8-0.1c0.3,0,0.6,0,0.9,0s0.6,0.1,0.8,0.3c0.2,0.1,0.4,0.4,0.5,0.7
				c0.1,0.3,0,0.6-0.1,0.7c-0.1,0.2-0.3,0.3-0.6,0.3c-0.2,0-0.3,0-0.4,0c-0.1,0-0.2,0-0.3-0.1c-0.1,0-0.3,0-0.4,0
				c-0.1,0-0.3,0-0.6,0c-0.7,0.1-1.2,0.4-1.6,0.8c-0.4,0.4-0.8,0.9-1,1.4s-0.4,1.1-0.4,1.7s0,1.2,0.1,1.7c0.1,0.5,0.3,1,0.5,1.5
				c0.2,0.5,0.5,0.9,0.8,1.2c0.3,0.3,0.7,0.5,1.2,0.7c0.5,0.1,1,0.2,1.6,0c0.3-0.1,0.6-0.2,1-0.3c0.3-0.2,0.6-0.4,0.9-0.6
				c0.3-0.2,0.4-0.5,0.6-0.8s0.2-0.7,0.1-1c-0.1-0.3-0.1-0.7-0.2-0.9c-0.1-0.3-0.1-0.5-0.2-0.7c-0.1-0.6-0.2-1.4-0.3-2.2
				c-0.1-0.8-0.1-1.5,0-2.2s0.2-1.3,0.4-1.8c0.2-0.5,0.6-0.8,1.1-0.9c0.3-0.1,0.5,0,0.7,0.1s0.4,0.3,0.5,0.5
				c0.1,0.2,0.2,0.4,0.3,0.7c0.1,0.3,0.1,0.5,0.2,0.8c0.1,0.5,0.1,1,0.1,1.5c0,0.6,0,1.1,0,1.6c0,0.5,0,1-0.1,1.4c0,0.4,0,0.7,0,0.9
				c0.1,0.4,0.2,0.7,0.3,1.1c0.1,0.4,0.2,0.7,0.4,0.9s0.4,0.5,0.6,0.6s0.6,0.2,1,0.1c0.3-0.1,0.5-0.1,0.7-0.2s0.4-0.2,0.6-0.2
				c0.2,0,0.4,0,0.6,0.1C346.2,414.3,346.3,414.4,346.4,414.6z"/>
		</g>
		<g class="st6">
			<path d="M361.3,412.1c0.1,0.3,0,0.6-0.1,0.8s-0.3,0.4-0.5,0.6c-0.2,0.2-0.4,0.3-0.7,0.4c-0.3,0.1-0.6,0.2-0.9,0.3
				c-0.9,0.2-1.6,0.1-2.2-0.1s-1.1-0.5-1.4-1c-0.4-0.4-0.7-0.9-0.8-1.5c-0.2-0.6-0.3-1.1-0.5-1.7c-0.1-0.3-0.1-0.7-0.1-1
				c0-0.4,0-0.8-0.1-1.2c0-0.4,0-0.8,0-1.2s0-0.7-0.1-1c-0.1-0.4-0.2-0.6-0.3-0.6c-0.1,0-0.2,0-0.3,0c-0.1,0-0.1,0-0.2,0
				c-0.3,0.1-0.7,0.2-1.1,0.3c-0.5,0.1-0.9,0.3-1.3,0.3c0,0-0.1,0-0.3,0c-0.1,0-0.3,0-0.5,0.1c0.1,0.2,0.1,0.4,0.2,0.5
				c0.1,0.2,0.1,0.3,0.1,0.3c0.1,0.5,0.2,1.1,0.3,1.7c0.1,0.6,0.1,1.3,0,1.9c0,0.7-0.1,1.3-0.3,1.9c-0.1,0.6-0.3,1.2-0.6,1.8
				c-0.3,0.5-0.6,1-1,1.3c-0.4,0.4-0.9,0.6-1.4,0.7c-0.4,0.1-0.7-0.1-0.8-0.7c-0.1-0.3,0-0.6,0.1-0.9c0.1-0.3,0.2-0.5,0.4-0.8
				c0.2-0.3,0.3-0.6,0.5-0.9c0.2-0.3,0.3-0.7,0.5-1.2c0.1-0.5,0.2-1,0.2-1.6c0-0.6,0-1.4-0.2-2.3c0-0.2-0.1-0.6-0.3-0.9
				s-0.3-0.7-0.4-1c-0.5-0.1-1-0.3-1.4-0.5c-0.4-0.2-0.6-0.6-0.7-1c-0.1-0.5,0-1,0.4-1.4c0.4-0.4,0.8-0.6,1.4-0.7
				c0.3-0.1,0.6,0,0.9,0.1s0.6,0.3,0.9,0.5c0.3,0.2,0.6,0.3,0.9,0.5c0.3,0.1,0.7,0.2,1,0.1c0.4-0.1,0.7-0.1,1-0.2
				c0.3-0.1,0.6-0.2,0.8-0.3c0.2-0.1,0.5-0.2,0.7-0.3s0.5-0.1,0.8-0.2c0.7-0.1,1.2-0.1,1.7,0.1c0.4,0.2,0.7,0.7,0.8,1.4
				c0.1,0.5,0.1,0.9,0.1,1.2c0,0.4,0,0.7,0,1.1s0,0.8,0.1,1.3c0,0.5,0.1,1.1,0.2,1.8c0.1,0.4,0.2,0.8,0.3,1.2c0.1,0.4,0.3,0.7,0.4,1
				c0.2,0.3,0.4,0.5,0.6,0.7c0.2,0.2,0.5,0.2,0.9,0.1c0.4-0.1,0.7-0.2,0.8-0.4s0.4-0.3,0.6-0.3c0.2,0,0.3,0,0.4,0.1
				C361.2,411.5,361.3,411.8,361.3,412.1z"/>
		</g>
		<g class="st6">
			<path d="M374.6,392.1c0.1,0.7,0.3,1.6,0.4,2.7c0.1,1.1,0.2,2.3,0.2,3.5c0,1.3,0,2.5-0.1,3.9c-0.1,1.3-0.3,2.6-0.7,3.8
				c0.4,0.6,0.8,1.1,1.2,1.5c0.4,0.4,0.7,0.7,1,1c0.3,0.2,0.5,0.4,0.7,0.6c0.2,0.1,0.3,0.2,0.3,0.3c0.1,0.5,0,0.8-0.2,1.1
				c-0.2,0.3-0.4,0.4-0.7,0.5c-0.7,0.1-1.3,0-1.9-0.4c-0.6-0.4-1.1-0.9-1.7-1.6c-0.5,0.8-1.1,1.5-1.7,2.1c-0.7,0.6-1.5,0.9-2.5,1.1
				c-0.9,0.2-1.8,0.2-2.7,0c-0.9-0.2-1.7-0.5-2.4-1c-0.7-0.5-1.3-1.1-1.8-1.8c-0.5-0.7-0.8-1.6-1-2.5c-0.2-1-0.2-1.9,0.1-2.8
				c0.2-0.9,0.6-1.7,1.2-2.5c0.5-0.7,1.2-1.4,2-1.9c0.8-0.5,1.7-0.9,2.6-1c0.2,0,0.4-0.1,0.6-0.1c0.2,0,0.4,0,0.6,0.1
				s0.4,0.1,0.5,0.3s0.2,0.3,0.3,0.5c0.1,0.3,0,0.5-0.1,0.7c-0.1,0.2-0.3,0.3-0.6,0.4c-0.1,0-0.2,0-0.3,0c-0.2,0-0.4,0-0.7,0.1
				c-0.6,0.1-1.1,0.3-1.5,0.6c-0.5,0.3-0.9,0.7-1.2,1.2c-0.4,0.5-0.6,1-0.8,1.6s-0.2,1.1-0.1,1.7c0.1,0.6,0.3,1.2,0.6,1.7
				c0.3,0.5,0.7,1,1.1,1.4c0.4,0.4,0.9,0.6,1.5,0.8c0.6,0.2,1.1,0.2,1.7,0.1c0.8-0.2,1.5-0.5,2.1-1c0.6-0.5,1-1.1,1.4-1.9
				c-0.4-0.7-0.7-1.5-1-2.3c-0.3-0.8-0.6-1.6-0.8-2.5c-0.3-0.8-0.5-1.6-0.7-2.4c-0.2-0.8-0.3-1.5-0.5-2.1c-0.1-0.4-0.2-0.9-0.3-1.5
				c-0.1-0.6-0.2-1.3-0.3-2c-0.1-0.7-0.1-1.5-0.1-2.2s0.1-1.4,0.3-2.1c0.2-0.6,0.4-1.2,0.8-1.6c0.3-0.4,0.8-0.7,1.4-0.8
				c0.5-0.1,1,0,1.4,0.2c0.4,0.2,0.8,0.5,1.1,1c0.3,0.4,0.6,1,0.8,1.6C374.2,390.6,374.4,391.3,374.6,392.1z M372.2,391.7
				c-0.1-0.8-0.3-1.3-0.4-1.5c-0.1-0.2-0.3-0.3-0.6-0.2c-0.2,0-0.3,0.2-0.4,0.4c-0.1,0.3-0.2,0.7-0.2,1.3c0,0.6,0.1,1.4,0.2,2.3
				c0.1,1,0.3,2.2,0.6,3.6c0.4,2.2,0.9,4,1.5,5.5c0.1-1.1,0.2-2.3,0.2-3.4c0-1.2-0.1-2.3-0.2-3.3c-0.1-1-0.2-2-0.4-2.8
				C372.4,392.7,372.3,392.1,372.2,391.7z"/>
			<path d="M390,405.3c0.1,0.5,0,1-0.4,1.5c-0.4,0.4-0.9,0.8-1.5,1.2s-1.2,0.6-1.9,0.8c-0.6,0.2-1.1,0.3-1.5,0.4
				c-0.6,0.1-1.3,0.1-2,0.1c-0.7-0.1-1.3-0.2-1.9-0.5s-1.1-0.7-1.5-1.2c-0.4-0.5-0.7-1.1-0.9-1.9c-0.1-0.8-0.1-1.5,0.2-2.1
				c0.3-0.6,0.7-1.3,1.1-1.9c-0.5-0.5-0.9-1.1-1-1.9c-0.1-0.6-0.1-1.1,0.1-1.5c0.2-0.5,0.5-0.9,0.9-1.2c0.4-0.3,0.8-0.6,1.3-0.9
				c0.5-0.2,1-0.4,1.5-0.5c0.3,0,0.6-0.1,1-0.1c0.4,0,0.9,0,1.3,0.1c0.4,0.1,0.8,0.2,1.1,0.4c0.3,0.2,0.5,0.4,0.6,0.8
				c0,0,0,0.1,0,0.2c0,0.1,0,0.2,0,0.3c0,0.1-0.1,0.2-0.1,0.3c-0.1,0.1-0.1,0.1-0.2,0.2c-0.2,0-0.4,0-0.5,0c-0.2,0-0.4-0.1-0.7-0.1
				c-0.2,0-0.5-0.1-0.8-0.1s-0.7,0-1.1,0.1c-0.2,0-0.5,0.1-0.7,0.2c-0.2,0.1-0.5,0.2-0.6,0.3c-0.2,0.1-0.3,0.3-0.4,0.5
				s-0.1,0.4-0.1,0.7c0,0.2,0.1,0.3,0.1,0.5c0.1,0.2,0.2,0.3,0.4,0.4c0.1,0,0.2,0,0.3-0.1c0.1,0,0.3-0.1,0.4-0.1
				c0.2,0,0.5-0.1,0.8-0.1s0.5,0,0.7,0.1c0.2,0.1,0.4,0.1,0.6,0.3s0.3,0.3,0.3,0.6c0.1,0.4,0,0.8-0.3,1.1c-0.3,0.3-0.7,0.5-1.1,0.5
				c-0.5,0.1-0.9,0.1-1.1,0.1c-0.2-0.1-0.4-0.1-0.5-0.1c0,0-0.1,0.1-0.2,0.1c-0.1,0.1-0.2,0.2-0.3,0.4c-0.1,0.2-0.2,0.5-0.2,0.8
				c-0.1,0.3,0,0.7,0,1.2c0.1,0.4,0.2,0.8,0.5,1c0.3,0.3,0.6,0.5,0.9,0.6s0.7,0.2,1.1,0.2c0.4,0,0.8,0,1.1-0.1
				c0.4-0.1,0.8-0.2,1.3-0.4s0.8-0.4,1.2-0.7c0.4-0.2,0.7-0.5,1-0.7c0.3-0.2,0.5-0.4,0.7-0.5c0.3-0.1,0.5,0,0.7,0.2
				C389.9,404.9,390,405.1,390,405.3z"/>
		</g>
		<g class="st6">
			<path d="M275.6,449c0,0.2,0,0.4-0.1,0.6c-0.1,0.2-0.2,0.3-0.3,0.4c-0.2,0.1-0.3,0.2-0.5,0.3c-0.2,0.1-0.4,0.2-0.6,0.2
				c-0.1,0-0.2,0-0.3,0.1c-0.1,0-0.2,0.1-0.3,0.1l1.8,9.5c0.1,0.5,0,0.8-0.3,1.1c-0.3,0.3-0.6,0.5-1,0.5c-0.3,0.1-0.7,0-1-0.2
				c-0.3-0.2-0.5-0.4-0.6-0.8l-1.8-9.4c-0.9,0.3-1.7,0.6-2.6,1c-0.9,0.4-1.7,0.8-2.6,1.2c-0.2,1.4-0.4,2.8-0.8,4.1
				c-0.3,1.3-0.8,2.4-1.4,3.5c-0.6,1-1.4,1.9-2.3,2.6c-0.9,0.7-2,1.2-3.3,1.4c-0.5,0.1-0.9,0.1-1.3,0.1c-0.4,0-0.8-0.1-1.2-0.3
				c-0.4-0.2-0.7-0.4-0.9-0.7c-0.3-0.3-0.4-0.7-0.5-1.2c-0.1-0.7,0-1.5,0.3-2.3c0.4-0.9,0.9-1.8,1.7-2.8c0.8-1,1.8-1.9,3-2.9
				s2.6-1.9,4.2-2.8c0.2-1.8,0.4-3.5,0.5-5.1c0.1-1.6,0.2-3,0.2-4c0.1-0.6,0.2-1.3,0.3-2c0.2-0.7,0.4-1.4,0.7-2s0.7-1.2,1.2-1.6
				c0.5-0.5,1.1-0.8,1.9-0.9c0.4-0.1,0.7-0.1,1.1,0c0.4,0,0.7,0.1,1.1,0.3s0.6,0.3,0.9,0.6c0.2,0.3,0.4,0.6,0.5,1l1.9,10.1
				c0.1,0,0.2,0,0.3-0.1s0.2-0.1,0.3-0.1c0.4-0.1,0.7-0.1,1-0.1c0.2,0,0.4,0.1,0.6,0.1c0.1,0.1,0.2,0.2,0.3,0.3
				C275.5,448.8,275.5,448.9,275.6,449z M262.3,455.2c-0.9,0.6-1.8,1.2-2.6,1.8c-0.8,0.6-1.5,1.2-2,1.8c-0.6,0.6-1,1.2-1.3,1.8
				c-0.3,0.6-0.4,1.2-0.2,1.7c0.1,0.3,0.2,0.5,0.4,0.6c0.2,0.1,0.4,0.1,0.7,0.1c0.7-0.1,1.3-0.4,1.9-0.9c0.5-0.5,1-1,1.4-1.7
				c0.4-0.7,0.8-1.5,1-2.4C261.8,457.2,262.1,456.2,262.3,455.2z M268.3,439.8c-0.1-0.3-0.2-0.6-0.3-0.7s-0.3-0.1-0.5-0.1
				c-0.3,0.1-0.5,0.2-0.7,0.5c-0.2,0.3-0.3,0.7-0.4,1.1c-0.1,0.4-0.2,0.8-0.2,1.2c0,0.4-0.1,0.7-0.1,1c-0.1,1.3-0.2,2.6-0.2,3.9
				c-0.1,1.3-0.1,2.7-0.2,4c0.7-0.3,1.4-0.6,2.2-0.9c0.7-0.3,1.5-0.5,2.3-0.8L268.3,439.8z"/>
			<path d="M286.2,457c0.1,0.3,0,0.6-0.2,0.8c-0.2,0.2-0.4,0.5-0.7,0.6c-0.3,0.2-0.6,0.3-0.9,0.5c-0.3,0.1-0.6,0.2-0.8,0.2
				c-0.6,0.1-1.1,0.1-1.6,0c-0.5-0.1-0.9-0.4-1.3-0.7c-0.4-0.3-0.7-0.7-1-1.2c-0.3-0.5-0.5-1-0.6-1.5l-1.3-6.8l-1,0.2
				c-0.4,0.1-0.7,0-1-0.2c-0.2-0.2-0.4-0.4-0.5-0.8c-0.1-0.3,0-0.6,0.1-0.8c0.1-0.2,0.4-0.4,0.8-0.5l1.1-0.2l-0.8-4.3
				c-0.1-0.4,0-0.7,0.3-1c0.3-0.3,0.6-0.4,0.9-0.5c0.3-0.1,0.6,0,0.9,0.1c0.3,0.1,0.5,0.4,0.6,0.7l0.8,4.4l2.7-0.5
				c0.3-0.1,0.5,0,0.8,0.1c0.2,0.2,0.4,0.4,0.5,0.8c0.1,0.3,0,0.6-0.1,0.8c-0.1,0.3-0.3,0.4-0.7,0.5l-2.8,0.5l1.2,6.2
				c0.1,0.4,0.2,0.7,0.3,1c0.1,0.3,0.3,0.6,0.4,0.8c0.2,0.2,0.4,0.4,0.7,0.5c0.3,0.1,0.6,0.1,0.9,0.1c0.2,0,0.4-0.1,0.6-0.2
				c0.2-0.1,0.3-0.2,0.5-0.2c0.2,0,0.5,0,0.7,0C285.9,456.4,286.1,456.6,286.2,457z"/>
		</g>
		<g class="st6">
			<path d="M302.8,453.6c0.1,0.3,0,0.6-0.2,0.8s-0.4,0.5-0.7,0.6c-0.3,0.2-0.6,0.3-0.9,0.4c-0.3,0.1-0.6,0.2-0.8,0.2
				c-1,0.2-1.9,0-2.7-0.4c-0.7-0.5-1.3-1.2-1.6-2.1c-0.2,0.6-0.5,1.1-0.7,1.6c-0.3,0.5-0.5,0.9-0.9,1.2c-0.3,0.4-0.7,0.7-1.2,0.9
				c-0.5,0.2-1,0.4-1.7,0.5c-0.7,0.1-1.4,0.1-2-0.2c-0.6-0.3-1.1-0.7-1.5-1.2c-0.4-0.5-0.7-1.1-1-1.8c-0.3-0.7-0.4-1.3-0.6-2
				l-1.2-6.3c-0.1-0.3,0-0.6,0.3-0.8c0.2-0.3,0.5-0.4,0.9-0.5c0.3-0.1,0.6,0,0.9,0.1c0.3,0.1,0.5,0.3,0.6,0.7l1.1,5.7
				c0.1,0.3,0.2,0.7,0.3,1.2c0.1,0.5,0.3,0.9,0.5,1.3c0.2,0.4,0.5,0.8,0.7,1.1c0.3,0.3,0.6,0.4,1,0.3c0.6-0.1,1.2-0.5,1.7-1
				c0.5-0.5,0.8-1.2,1.1-2c0.3-0.8,0.4-1.6,0.5-2.6c0-0.9,0-1.9-0.2-2.8l-0.5-2.4c-0.1-0.3,0-0.5,0.2-0.8c0.2-0.2,0.5-0.4,0.9-0.5
				c0.3-0.1,0.6,0,0.9,0.1c0.3,0.1,0.5,0.3,0.6,0.7l1.4,7.4c0.1,0.4,0.2,0.7,0.3,1c0.1,0.3,0.3,0.6,0.4,0.8c0.2,0.2,0.4,0.4,0.7,0.5
				c0.3,0.1,0.6,0.1,0.9,0.1c0.2,0,0.4-0.1,0.6-0.2c0.2-0.1,0.3-0.2,0.5-0.2c0.2,0,0.5,0,0.7,0C302.6,453.1,302.8,453.3,302.8,453.6
				z"/>
		</g>
		<g class="st6">
			<path d="M318.9,450.4c0.1,0.3,0,0.6-0.1,0.9c-0.1,0.2-0.3,0.4-0.6,0.6c-0.2,0.2-0.5,0.3-0.8,0.4c-0.3,0.1-0.6,0.2-0.8,0.2
				c-0.6,0.1-1.1,0.1-1.7,0c-0.6-0.1-1.1-0.4-1.6-0.7c-0.6,0.5-1.3,1-1.9,1.4c-0.6,0.4-1.3,0.7-2.2,0.8c-0.8,0.1-1.5,0.1-2.2,0
				c-0.7-0.2-1.4-0.4-2-0.8c-0.6-0.4-1.1-0.9-1.5-1.5c-0.4-0.6-0.7-1.3-0.9-2.1c-0.2-0.9-0.2-1.9-0.1-2.8c0.1-1,0.4-1.9,0.8-2.7
				c0.4-0.8,1-1.5,1.7-2.1c0.7-0.6,1.6-1,2.6-1.2c0.2,0,0.5-0.1,0.8-0.1c0.3,0,0.6,0,0.9,0c0.3,0,0.6,0.1,0.8,0.3s0.4,0.4,0.5,0.7
				c0.1,0.3,0,0.6-0.1,0.7c-0.1,0.2-0.3,0.3-0.6,0.3c-0.2,0-0.3,0-0.4,0c-0.1,0-0.2,0-0.3-0.1c-0.1,0-0.3,0-0.4,0s-0.3,0-0.6,0
				c-0.7,0.1-1.2,0.4-1.6,0.8c-0.4,0.4-0.8,0.9-1,1.4s-0.4,1.1-0.4,1.7c-0.1,0.6,0,1.2,0.1,1.7c0.1,0.5,0.3,1,0.5,1.5
				c0.2,0.5,0.5,0.9,0.8,1.2c0.3,0.3,0.7,0.6,1.2,0.7c0.5,0.1,1,0.2,1.6,0c0.3-0.1,0.6-0.2,1-0.3s0.6-0.4,0.9-0.6
				c0.3-0.2,0.4-0.5,0.6-0.8s0.2-0.7,0.1-1c-0.1-0.3-0.1-0.7-0.2-0.9c-0.1-0.3-0.1-0.5-0.2-0.7c-0.1-0.6-0.2-1.4-0.3-2.2
				s-0.1-1.5,0-2.2c0.1-0.7,0.2-1.3,0.4-1.8c0.2-0.5,0.6-0.8,1.1-0.9c0.3-0.1,0.5,0,0.7,0.1c0.2,0.1,0.4,0.3,0.5,0.5
				c0.1,0.2,0.2,0.5,0.3,0.7c0.1,0.3,0.1,0.5,0.2,0.8c0.1,0.5,0.1,1,0.1,1.5c0,0.6,0,1.1,0,1.6c0,0.5,0,1-0.1,1.4c0,0.4,0,0.7,0,0.9
				c0.1,0.4,0.2,0.7,0.3,1.1c0.1,0.4,0.2,0.7,0.4,0.9c0.2,0.3,0.4,0.5,0.6,0.6c0.3,0.1,0.6,0.2,1,0.1c0.3-0.1,0.5-0.1,0.7-0.2
				c0.2-0.1,0.4-0.2,0.6-0.2c0.2,0,0.4,0,0.6,0.1C318.7,450,318.8,450.2,318.9,450.4z"/>
			<path d="M328.5,449.2c0,0.2,0,0.3,0,0.5c0,0.2-0.1,0.3-0.2,0.4c-0.1,0.1-0.3,0.2-0.5,0.3c-0.2,0.1-0.5,0.2-0.9,0.3
				c-1.1,0.2-2,0.1-2.9-0.4c-0.9-0.5-1.6-1.1-2.3-2c-0.3,0.6-0.7,1-1,1.4c-0.4,0.4-0.7,0.6-1,0.6c-0.2,0-0.4,0-0.6-0.2
				c-0.2-0.2-0.3-0.4-0.4-0.7c0-0.1,0-0.2,0-0.2c0-0.1,0-0.2,0.1-0.3c0.6-0.7,1.2-1.6,1.6-2.5c-0.4-0.6-0.7-1.3-1-2
				c-0.3-0.7-0.6-1.4-0.8-2.1c-0.2-0.7-0.4-1.3-0.6-2c-0.2-0.6-0.3-1.2-0.4-1.7c-0.1-0.5-0.2-1.1-0.3-1.9c-0.1-0.8-0.2-1.6-0.2-2.4
				c0-0.9,0-1.7,0-2.6c0.1-0.9,0.2-1.7,0.5-2.4c0.2-0.7,0.6-1.4,1-1.9c0.4-0.5,1-0.8,1.7-1c0.7-0.1,1.2-0.1,1.6,0.2
				c0.4,0.2,0.8,0.6,1,1c0.2,0.4,0.4,0.9,0.6,1.5c0.1,0.6,0.3,1.1,0.3,1.6c0.3,1.4,0.4,2.8,0.5,4.3c0,1.4,0,2.8-0.1,4.1
				c-0.1,1.3-0.3,2.6-0.6,3.8c-0.3,1.2-0.6,2.3-0.9,3.2c0.5,0.9,1,1.5,1.6,2c0.6,0.5,1.3,0.7,2,0.5c0.2,0,0.4-0.1,0.6-0.1
				c0.2,0,0.4,0,0.6,0.1c0.2,0.1,0.3,0.1,0.5,0.3C328.4,448.9,328.5,449.1,328.5,449.2z M321.9,430.1c0-0.2-0.1-0.3-0.1-0.5
				c-0.1-0.2-0.1-0.3-0.3-0.5c-0.1-0.1-0.2-0.3-0.4-0.3c-0.1-0.1-0.3-0.1-0.5-0.1c-0.3,0.1-0.6,0.3-0.7,0.7
				c-0.2,0.4-0.3,0.9-0.3,1.5c0,0.6,0,1.3,0,2c0,0.7,0.1,1.4,0.2,2.1c0.1,0.7,0.2,1.3,0.3,1.8c0.1,0.5,0.2,0.9,0.2,1.2
				c0.1,0.6,0.3,1.3,0.5,2.2c0.2,0.9,0.5,1.8,0.8,2.8c0.3-1.2,0.5-2.5,0.6-3.7s0.2-2.5,0.1-3.6c0-1.1-0.1-2.2-0.2-3.2
				C322.2,431.6,322.1,430.8,321.9,430.1z"/>
			<path d="M330.2,432.3c0.1,0.5,0,1-0.3,1.5c-0.3,0.4-0.7,0.7-1.2,0.8c-0.5,0.1-1,0-1.5-0.3c-0.4-0.3-0.7-0.8-0.8-1.3
				c-0.1-0.5,0-1,0.4-1.4c0.3-0.4,0.7-0.7,1.2-0.8c0.2,0,0.5,0,0.7,0c0.2,0.1,0.5,0.2,0.7,0.3c0.2,0.1,0.4,0.3,0.6,0.5
				C330.1,431.8,330.2,432,330.2,432.3z M336.4,447.4c0.1,0.3,0,0.6-0.2,0.8c-0.2,0.2-0.4,0.5-0.7,0.6c-0.3,0.2-0.6,0.3-0.9,0.5
				c-0.3,0.1-0.6,0.2-0.8,0.2c-0.6,0.1-1.1,0.1-1.6,0c-0.5-0.1-0.9-0.4-1.3-0.7c-0.4-0.3-0.7-0.7-1-1.2c-0.3-0.5-0.5-1-0.6-1.5
				l-1.5-8c-0.1-0.4,0-0.7,0.3-1c0.3-0.3,0.6-0.4,0.9-0.5c0.3-0.1,0.6,0,0.9,0.1c0.3,0.1,0.5,0.4,0.6,0.7l1.4,7.5
				c0.1,0.4,0.2,0.7,0.3,1c0.1,0.3,0.3,0.6,0.4,0.8c0.2,0.2,0.4,0.4,0.7,0.5c0.3,0.1,0.6,0.1,0.9,0.1c0.2,0,0.4-0.1,0.6-0.2
				c0.2-0.1,0.3-0.2,0.5-0.2c0.2,0,0.5,0,0.7,0C336.1,446.9,336.3,447.1,336.4,447.4z"/>
			<path d="M349,443c0,0.2,0,0.3-0.1,0.5c-0.1,0.2-0.2,0.3-0.3,0.4c-0.4,0.3-0.8,0.7-1.2,1c-0.4,0.3-0.8,0.7-1.1,1
				c1.2,1.5,2,3,2.3,4.7c0.1,0.6,0.2,1.3,0.1,2c0,0.7-0.2,1.4-0.4,2.1c-0.2,0.7-0.6,1.2-1,1.7c-0.5,0.5-1.1,0.8-1.8,1
				c-0.6,0.1-1.2,0.1-1.7-0.1c-0.5-0.2-0.9-0.4-1.3-0.8c-0.4-0.4-0.7-0.8-0.9-1.3s-0.4-1.1-0.5-1.6c-0.1-0.5-0.1-1.1-0.1-1.8
				c0-0.6,0.2-1.3,0.4-2c0.2-0.7,0.5-1.3,0.8-2c0.3-0.7,0.7-1.3,1.2-2c-0.2-0.2-0.5-0.4-0.7-0.5c-0.2-0.1-0.5-0.2-0.7-0.1
				c-0.3,0.1-0.5,0.1-0.8,0.2c-0.3,0.1-0.6,0.2-0.9,0.2c-0.2,0-0.4,0.1-0.7,0.1c-0.3,0-0.5,0-0.8,0c-0.2-0.1-0.5-0.1-0.6-0.3
				c-0.2-0.1-0.3-0.3-0.4-0.6c0-0.2,0-0.4,0.1-0.6c0.1-0.2,0.2-0.4,0.4-0.5s0.4-0.3,0.6-0.4c0.2-0.1,0.4-0.2,0.7-0.2
				c0.4-0.1,0.7-0.1,1-0.1c0.3,0,0.6,0,0.9-0.1c0.4-0.1,0.7-0.3,1-0.6c0.3-0.3,0.5-0.7,0.6-1.2c0.1-0.5,0.2-0.9,0.3-1.4
				c0-0.5,0-0.9,0-1.2c-0.1-0.4-0.2-0.8-0.5-1.1c-0.2-0.3-0.5-0.6-0.8-0.8c-0.3-0.2-0.7-0.3-1.1-0.4c-0.4-0.1-0.8-0.1-1.1,0
				c-0.6,0.1-1.1,0.4-1.5,0.8c-0.4,0.4-0.7,0.9-1,1.3c-0.3,0.5-0.5,0.9-0.7,1.3c-0.2,0.4-0.4,0.6-0.7,0.6c-0.3,0.1-0.6,0-0.8-0.1
				c-0.2-0.2-0.3-0.4-0.4-0.6c-0.1-0.7-0.1-1.3,0.2-1.9c0.3-0.6,0.7-1.2,1.2-1.7s1.1-0.9,1.7-1.3s1.2-0.6,1.8-0.7
				c0.7-0.1,1.4-0.1,2,0c0.7,0.1,1.3,0.4,1.8,0.7c0.6,0.4,1,0.8,1.4,1.4c0.4,0.6,0.7,1.2,0.8,1.9c0.1,0.6,0.2,1.2,0.1,1.7
				c0,0.5-0.1,0.9-0.3,1.4c-0.2,0.4-0.4,0.9-0.7,1.3c-0.3,0.4-0.7,0.9-1.1,1.4c0.2,0.1,0.3,0.2,0.5,0.4c0.2,0.1,0.3,0.2,0.5,0.4
				c0.4-0.4,0.9-0.9,1.5-1.2s1.1-0.7,1.7-1c0,0,0.1,0,0.2-0.1c0.2,0,0.4,0,0.5,0.2C348.9,442.6,349,442.8,349,443z M346.3,451.2
				c-0.1-0.5-0.3-1-0.5-1.7c-0.3-0.6-0.6-1.2-1-1.8c-0.6,0.8-1,1.7-1.3,2.6c-0.3,0.9-0.3,2-0.1,3.2c0,0.2,0.1,0.5,0.2,0.7
				c0.1,0.3,0.2,0.5,0.3,0.7c0.1,0.2,0.3,0.3,0.5,0.4c0.2,0.1,0.4,0.1,0.7,0.1c0.4-0.1,0.7-0.3,0.9-0.6s0.3-0.7,0.4-1.1
				c0.1-0.4,0.1-0.9,0-1.3C346.4,451.9,346.4,451.5,346.3,451.2z"/>
			<path d="M365.7,441.5c0.1,0.3,0,0.6-0.1,0.9c-0.1,0.2-0.3,0.4-0.6,0.6s-0.5,0.3-0.8,0.4s-0.6,0.2-0.8,0.2c-0.6,0.1-1.1,0.1-1.7,0
				c-0.6-0.1-1.1-0.4-1.6-0.7c-0.6,0.5-1.3,1-1.9,1.4c-0.6,0.4-1.3,0.7-2.2,0.8c-0.8,0.1-1.5,0.1-2.2,0c-0.7-0.2-1.4-0.4-2-0.8
				c-0.6-0.4-1.1-0.9-1.5-1.5c-0.4-0.6-0.7-1.3-0.9-2.1c-0.2-0.9-0.2-1.9-0.1-2.8c0.1-1,0.4-1.9,0.8-2.7s1-1.5,1.7-2.1
				c0.7-0.6,1.6-1,2.6-1.2c0.2,0,0.5-0.1,0.8-0.1c0.3,0,0.6,0,0.9,0c0.3,0,0.6,0.1,0.8,0.3c0.2,0.1,0.4,0.4,0.5,0.7
				c0.1,0.3,0,0.6-0.1,0.7s-0.3,0.3-0.6,0.3c-0.2,0-0.3,0-0.4,0s-0.2,0-0.3-0.1c-0.1,0-0.3,0-0.4,0c-0.1,0-0.3,0-0.6,0
				c-0.7,0.1-1.2,0.4-1.6,0.8s-0.8,0.9-1,1.4s-0.4,1.1-0.4,1.7c-0.1,0.6,0,1.2,0.1,1.7c0.1,0.5,0.3,1,0.5,1.5
				c0.2,0.5,0.5,0.9,0.8,1.2s0.7,0.6,1.2,0.7c0.5,0.1,1,0.2,1.6,0c0.3-0.1,0.6-0.2,1-0.3c0.3-0.2,0.6-0.4,0.9-0.6
				c0.3-0.2,0.4-0.5,0.6-0.8c0.1-0.3,0.2-0.7,0.1-1c-0.1-0.3-0.1-0.7-0.2-0.9c-0.1-0.3-0.1-0.5-0.2-0.7c-0.1-0.6-0.2-1.4-0.3-2.2
				s-0.1-1.5,0-2.2c0.1-0.7,0.2-1.3,0.4-1.8c0.2-0.5,0.6-0.8,1.1-0.9c0.3-0.1,0.5,0,0.7,0.1c0.2,0.1,0.4,0.3,0.5,0.5
				s0.2,0.5,0.3,0.7c0.1,0.3,0.1,0.5,0.2,0.8c0.1,0.5,0.1,1,0.1,1.5c0,0.6,0,1.1,0,1.6c0,0.5,0,1-0.1,1.4c0,0.4,0,0.7,0,0.9
				c0.1,0.4,0.2,0.7,0.2,1.1c0.1,0.4,0.2,0.7,0.4,0.9c0.2,0.3,0.4,0.5,0.6,0.6c0.3,0.1,0.6,0.2,1,0.1c0.3-0.1,0.5-0.1,0.7-0.2
				c0.2-0.1,0.4-0.2,0.6-0.2c0.2,0,0.4,0,0.6,0.1C365.6,441.1,365.7,441.3,365.7,441.5z"/>
			<path d="M378.7,437.8c0.1,0.4,0,0.7-0.2,1.1s-0.5,0.7-0.9,1s-0.8,0.6-1.3,0.8s-0.9,0.4-1.4,0.6c0.5,0.3,0.9,0.7,1.3,1.1
				c0.4,0.4,0.6,0.9,0.7,1.4c0.1,0.4,0.1,0.8-0.1,1.1c-0.1,0.3-0.3,0.7-0.5,0.9s-0.5,0.5-0.9,0.7c-0.3,0.2-0.7,0.3-1,0.4
				c-0.3,0.1-0.7,0.1-1,0.1c-0.4,0-0.7-0.1-1-0.2c-0.3-0.1-0.6-0.3-0.8-0.5s-0.4-0.6-0.5-0.9c0-0.2,0-0.3-0.1-0.5
				c0-0.2,0-0.4,0.1-0.6c0.1-0.2,0.2-0.4,0.4-0.5s0.4-0.3,0.8-0.3c0.2,0,0.3,0,0.5,0c0.2,0,0.2,0.1,0.3,0.2c0,0.1,0,0.3,0,0.4
				s-0.1,0.2-0.1,0.3c0,0.1-0.1,0.2-0.1,0.4s0,0.3,0,0.5c0,0.2,0.2,0.3,0.5,0.4c0.3,0.1,0.6,0.1,0.9,0c0.5-0.1,0.8-0.3,0.9-0.5
				c0.1-0.2,0.2-0.5,0.1-0.6c-0.1-0.6-0.3-1.1-0.6-1.4s-0.8-0.7-1.3-1.1c-0.9,0.1-1.7,0.1-2.6-0.1c-0.8-0.2-1.6-0.5-2.2-0.9
				c-0.7-0.4-1.2-1-1.7-1.7c-0.5-0.7-0.8-1.5-1-2.4c-0.2-1.1-0.2-2.1,0-3c0.2-0.9,0.5-1.7,1.1-2.4c0.5-0.7,1.2-1.3,2-1.8
				c0.8-0.5,1.8-0.8,2.8-1c0.5-0.1,1-0.1,1.5-0.1c0.5,0,1.1,0.1,1.6,0.2c0.5,0.1,0.9,0.4,1.3,0.7c0.4,0.3,0.6,0.8,0.7,1.4
				c0.1,0.3,0.1,0.7,0,1.1c-0.1,0.4-0.2,0.8-0.4,1.1c-0.2,0.3-0.4,0.6-0.6,0.9c-0.3,0.3-0.5,0.4-0.8,0.5c-0.6,0.1-1,0.1-1.3,0
				c-0.3-0.1-0.4-0.4-0.5-0.7c0-0.2,0-0.4,0.1-0.6c0.1-0.2,0.2-0.4,0.3-0.6c0.1-0.2,0.2-0.4,0.3-0.6c0.1-0.2,0.1-0.4,0.1-0.6
				c0-0.2-0.2-0.4-0.3-0.5c-0.2-0.1-0.4-0.2-0.6-0.2c-0.2,0-0.4,0-0.7,0c-0.2,0-0.4,0.1-0.6,0.1c-0.6,0.1-1.2,0.3-1.7,0.7
				c-0.5,0.3-0.9,0.7-1.2,1.2c-0.3,0.5-0.5,1-0.6,1.6c-0.1,0.6-0.1,1.2,0,1.9c0.1,0.7,0.4,1.3,0.7,1.8s0.7,0.9,1.2,1.3
				s1,0.5,1.6,0.6c0.6,0.1,1.2,0.1,1.9,0c0.6-0.1,1.1-0.3,1.5-0.5c0.5-0.3,0.9-0.5,1.3-0.8c0.4-0.3,0.7-0.5,1-0.7
				c0.3-0.2,0.5-0.3,0.6-0.4c0.2,0,0.4,0,0.5,0.2C378.6,437.4,378.6,437.6,378.7,437.8z"/>
			<path d="M394.1,426.4c0.1,0.3-0.1,0.6-0.5,0.9c-0.4,0.4-0.9,0.7-1.4,1.1c0.6,1,0.9,1.8,1.1,2.6c0.2,1.1,0.2,2.1,0,3
				c-0.2,0.9-0.6,1.7-1.1,2.4s-1.2,1.3-2.1,1.8s-1.7,0.8-2.8,1c-1,0.2-1.9,0.2-2.9,0.1s-1.8-0.4-2.6-0.8c-0.8-0.4-1.4-1-2-1.7
				c-0.5-0.7-0.9-1.6-1.1-2.7c-0.2-0.8-0.1-1.7,0-2.6s0.5-1.8,0.9-2.6c0.4-0.8,1-1.5,1.7-2.1c0.7-0.6,1.5-1,2.4-1.2
				c0.2,0,0.3,0,0.5,0.1c0.2,0.1,0.3,0.2,0.3,0.4c0,0.3-0.1,0.5-0.3,0.7c-0.2,0.2-0.4,0.5-0.7,0.7c-0.3,0.3-0.5,0.6-0.8,0.9
				c-0.3,0.3-0.6,0.7-0.8,1.1c-0.2,0.4-0.4,0.9-0.5,1.5s-0.1,1.3,0.1,2c0.1,0.7,0.4,1.3,0.7,1.8c0.3,0.5,0.8,1,1.3,1.3
				c0.5,0.4,1.1,0.6,1.7,0.8c0.6,0.1,1.3,0.2,2,0c0.6-0.1,1.2-0.4,1.7-0.7c0.5-0.3,0.9-0.8,1.2-1.3c0.3-0.5,0.5-1.1,0.6-1.8
				c0.1-0.7,0.1-1.4-0.1-2.3c-0.1-0.4-0.2-0.9-0.5-1.5c-0.6,0.3-1.1,0.5-1.5,0.6c-0.4,0.1-0.8,0.1-1.1,0c-0.4,0-0.7-0.2-1.1-0.3
				c-0.3-0.2-0.6-0.4-0.9-0.7c-0.2-0.3-0.4-0.6-0.5-1.1c-0.1-0.7,0-1.3,0.4-1.8s1-0.8,1.7-0.9c0.8-0.2,1.5-0.1,2.2,0.3
				c0.7,0.3,1.3,0.8,1.8,1.4c0.5-0.3,0.9-0.7,1.3-1c0.4-0.3,0.7-0.5,0.9-0.5s0.4,0,0.5,0.2C394,425.9,394.1,426.1,394.1,426.4z
				 M388.2,420.7c0.1,0.4,0.1,0.8,0,1.1c-0.1,0.4-0.2,0.7-0.4,1c-0.2,0.3-0.4,0.6-0.7,0.8c-0.3,0.2-0.5,0.3-0.8,0.4
				c-0.3,0.1-0.6,0-0.8-0.1c-0.3-0.1-0.5-0.3-0.8-0.5c-0.3-0.2-0.5-0.3-0.7-0.5c-0.2-0.1-0.5-0.2-0.7-0.1c-0.2,0-0.4,0.2-0.5,0.4
				c-0.1,0.2-0.2,0.4-0.3,0.7c-0.1,0.2-0.2,0.5-0.3,0.7c-0.1,0.2-0.2,0.3-0.3,0.3c-0.2,0-0.3,0-0.4-0.1c-0.1-0.1-0.1-0.3-0.2-0.5
				c-0.1-0.3-0.1-0.7,0-1.1c0.1-0.4,0.2-0.7,0.4-1c0.2-0.3,0.4-0.6,0.6-0.8c0.2-0.2,0.5-0.4,0.7-0.4c0.3-0.1,0.7,0,0.9,0.1
				c0.3,0.1,0.5,0.2,0.8,0.4c0.2,0.2,0.5,0.3,0.7,0.4c0.2,0.1,0.4,0.2,0.6,0.1c0.3-0.1,0.5-0.2,0.7-0.4s0.3-0.4,0.4-0.6
				c0.1-0.2,0.2-0.4,0.3-0.6c0.1-0.2,0.2-0.3,0.4-0.3c0.2,0,0.3,0,0.4,0.1C388.1,420.4,388.2,420.6,388.2,420.7z M389.2,428.1
				c-0.3-0.3-0.6-0.6-0.9-0.8c-0.3-0.2-0.7-0.3-1.1-0.2c-0.3,0.1-0.5,0.2-0.4,0.5c0,0.2,0.1,0.3,0.3,0.4c0.1,0.1,0.3,0.2,0.5,0.2
				c0.2,0,0.3,0.1,0.5,0.1c0.2,0,0.3,0,0.4,0C388.7,428.3,389,428.2,389.2,428.1z"/>
			<path d="M407.5,432.6c0.1,0.5,0,1-0.4,1.5c-0.4,0.4-0.9,0.8-1.5,1.2c-0.6,0.3-1.2,0.6-1.9,0.8c-0.6,0.2-1.1,0.4-1.5,0.4
				c-0.6,0.1-1.3,0.1-2,0.1c-0.7-0.1-1.3-0.2-1.9-0.5c-0.6-0.3-1.1-0.7-1.5-1.2c-0.4-0.5-0.7-1.1-0.9-1.9c-0.1-0.8-0.1-1.5,0.2-2.1
				c0.3-0.6,0.7-1.3,1.1-1.9c-0.5-0.5-0.9-1.1-1-1.9c-0.1-0.6-0.1-1.1,0.1-1.5c0.2-0.5,0.5-0.9,0.9-1.2c0.4-0.3,0.8-0.6,1.3-0.9
				c0.5-0.2,1-0.4,1.5-0.5c0.3-0.1,0.6-0.1,1-0.1c0.4,0,0.9,0,1.3,0.1c0.4,0.1,0.8,0.2,1.1,0.4c0.3,0.2,0.5,0.4,0.6,0.8
				c0,0,0,0.1,0,0.2c0,0.1,0,0.2,0,0.3c0,0.1-0.1,0.2-0.1,0.3c-0.1,0.1-0.1,0.1-0.2,0.2c-0.2,0-0.4,0-0.5,0c-0.2,0-0.4-0.1-0.7-0.1
				c-0.2,0-0.5-0.1-0.8-0.1c-0.3,0-0.7,0-1.1,0.1c-0.2,0-0.5,0.1-0.7,0.2s-0.5,0.2-0.6,0.3c-0.2,0.1-0.3,0.3-0.4,0.5
				s-0.1,0.4-0.1,0.7c0,0.2,0.1,0.3,0.1,0.5c0.1,0.2,0.2,0.3,0.4,0.4c0.1,0,0.2,0,0.3-0.1c0.1,0,0.3-0.1,0.4-0.1
				c0.2,0,0.5-0.1,0.8-0.1c0.3,0,0.5,0,0.7,0.1c0.2,0.1,0.4,0.1,0.6,0.3c0.2,0.1,0.3,0.3,0.3,0.6c0.1,0.4,0,0.8-0.3,1.1
				c-0.3,0.3-0.7,0.5-1.1,0.5c-0.5,0.1-0.9,0.1-1.1,0.1c-0.2-0.1-0.4-0.1-0.5-0.1c0,0-0.1,0.1-0.2,0.1c-0.1,0.1-0.2,0.2-0.3,0.4
				c-0.1,0.2-0.2,0.5-0.2,0.8c-0.1,0.3,0,0.7,0,1.2c0.1,0.4,0.2,0.8,0.5,1s0.6,0.5,0.9,0.6s0.7,0.2,1.1,0.2s0.8,0,1.1-0.1
				c0.4-0.1,0.8-0.2,1.3-0.4c0.4-0.2,0.8-0.4,1.2-0.7c0.4-0.2,0.7-0.5,1-0.7c0.3-0.2,0.5-0.4,0.7-0.5c0.3-0.1,0.5,0,0.7,0.2
				C407.4,432.1,407.5,432.3,407.5,432.6z"/>
			<path d="M420.9,431.4c0.1,0.3,0,0.5-0.2,0.7c-0.2,0.2-0.4,0.3-0.6,0.3c-0.2,0-0.5-0.1-0.8-0.3s-0.8-0.5-1.4-0.8
				c-0.3,0.7-0.8,1.3-1.5,1.9c-0.6,0.5-1.4,0.9-2.2,1c-0.3,0.1-0.6,0.1-1,0.1c-0.4,0-0.8,0-1.2-0.1c-0.4-0.1-0.7-0.2-1.1-0.5
				c-0.3-0.2-0.5-0.6-0.6-1.1c-0.1-0.5,0-0.9,0.2-1.2c0.2-0.3,0.5-0.7,0.9-0.9c0.4-0.3,0.8-0.5,1.2-0.6c0.4-0.2,0.8-0.3,1.2-0.3
				c0.7-0.1,1.4-0.2,2.2-0.2c0-0.1,0-0.1,0-0.2c0-0.1,0-0.1,0-0.2c-0.1-0.5-0.3-1-0.5-1.4c-0.2-0.5-0.5-0.9-0.9-1.3
				c-0.4-0.4-0.8-0.8-1.2-1.1c-0.5-0.3-1-0.6-1.5-0.8l-1.8,6.3c0,0.2-0.1,0.4-0.2,0.6c-0.1,0.2-0.2,0.5-0.3,0.7
				c-0.1,0.2-0.3,0.4-0.4,0.6c-0.2,0.2-0.3,0.3-0.6,0.3c-0.2,0-0.3,0-0.6-0.1c-0.2-0.1-0.4-0.2-0.4-0.4c0-0.1,0-0.2,0-0.3
				c0-0.1,0-0.2,0-0.3c0.5-2,1-3.6,1.3-4.7c0.3-1.2,0.5-2,0.7-2.6c0.1-0.6,0.2-1,0.2-1.1c0-0.2,0-0.3,0-0.3c0,0,0-0.1-0.1-0.2
				c-0.1-0.1-0.2-0.2-0.3-0.4c-0.1-0.2-0.2-0.4-0.3-0.6c-0.1-0.2-0.2-0.5-0.3-0.8c-0.1-0.5,0-1,0.3-1.5c0.3-0.5,0.7-0.8,1.4-0.9
				c0.5-0.1,0.9,0,1.3,0.2c0.4,0.3,0.6,0.6,0.7,1.1c0,0.2,0,0.3,0,0.5c0,0.2,0,0.4,0,0.6c0,0.2,0,0.4-0.1,0.6c0,0.2-0.1,0.3-0.1,0.4
				c0.7,0.3,1.4,0.7,2.1,1.1c0.7,0.4,1.3,1,1.8,1.5s1,1.2,1.3,1.9c0.4,0.7,0.6,1.4,0.8,2.2c0,0.2,0,0.3,0.1,0.4c0,0.1,0,0.3,0,0.5
				c0.7,0.2,1.3,0.4,1.8,0.7C420.6,430.7,420.9,431,420.9,431.4z M415.8,430.9c-0.5,0-1,0-1.5,0.1c-0.2,0-0.4,0.1-0.6,0.2
				s-0.4,0.2-0.6,0.3c-0.2,0.1-0.3,0.3-0.4,0.4c-0.1,0.2-0.1,0.4-0.1,0.6c0,0.2,0.2,0.2,0.4,0.2c0.2,0,0.4,0,0.5-0.1
				c0.6-0.1,1-0.3,1.4-0.6C415.4,431.8,415.6,431.4,415.8,430.9z"/>
		</g>
		<path d="M197.4,348.7c73.6-14.4,146.7-31.6,220.4-45.8c1.9-0.4,1.1-3.3-0.8-2.9l-10.1,1.9c-1.9,0.4-1.1,3.3,0.8,2.9l10.1-1.9
			L417,300c-73.7,14.2-146.7,31.5-220.4,45.8C194.8,346.2,195.6,349.1,197.4,348.7L197.4,348.7z"/>
		<path d="M292.7,342.3c21.1-6.1,42.9-9,64.4-13c1.9-0.4,1.1-3.3-0.8-2.9c-21.5,4.1-43.3,6.9-64.4,13c-0.8,0.2-1.2,1.1-1,1.9
			C291.2,342,291.9,342.5,292.7,342.3L292.7,342.3z"/>
		<path d="M297.3,350c10.5-3.4,21.6-4.6,32.3-7.3c6-1.5,12.6-4.3,18.7-4.7c1.9-0.1,1.9-3.1,0-3c-6.1,0.5-12.6,3.1-18.5,4.6
			c-11,2.8-22.4,4.1-33.2,7.6C294.7,347.7,295.5,350.6,297.3,350L297.3,350z"/>
		<path d="M308,353.4l29.3-5.6c1.9-0.4,1.1-3.3-0.8-2.9l-29.3,5.6C305.4,350.8,306.2,353.7,308,353.4L308,353.4z"/>
		<path d="M324.3,357.3l15-2.9c1.9-0.4,1.1-3.3-0.8-2.9l-15,2.9C321.7,354.7,322.5,357.6,324.3,357.3L324.3,357.3z"/>
	</g>
</g>
</svg>
